<mxfile host="app.diagrams.net" modified="2024-03-17T23:13:32.293Z" agent="Mozilla/5.0 (Windows NT 10.0; Win64; x64) AppleWebKit/537.36 (KHTML, like Gecko) Chrome/122.0.0.0 Safari/537.36" etag="SGuCp0-NaAQvkx0u9kxy" version="24.0.7" type="github">
  <diagram name="第 1 页" id="WUBY8RXkvQEZSxj02nDo">
    <mxGraphModel dx="1500" dy="757" grid="1" gridSize="10" guides="1" tooltips="1" connect="1" arrows="1" fold="1" page="1" pageScale="1" pageWidth="827" pageHeight="1169" math="0" shadow="0">
      <root>
        <mxCell id="0" />
        <mxCell id="1" parent="0" />
        <mxCell id="wcmJC4ws4vvmKw_JKWgn-1" value="" style="ellipse;whiteSpace=wrap;html=1;rotation=90;" vertex="1" parent="1">
          <mxGeometry x="58.25" y="133.5" width="162.5" height="62.5" as="geometry" />
        </mxCell>
        <mxCell id="wcmJC4ws4vvmKw_JKWgn-10" value="Customer" style="text;strokeColor=none;align=center;fillColor=none;html=1;verticalAlign=middle;whiteSpace=wrap;rounded=0;" vertex="1" parent="1">
          <mxGeometry x="109.5" y="254" width="60" height="30" as="geometry" />
        </mxCell>
        <mxCell id="wcmJC4ws4vvmKw_JKWgn-17" value="Product" style="text;strokeColor=none;align=center;fillColor=none;html=1;verticalAlign=middle;whiteSpace=wrap;rounded=0;" vertex="1" parent="1">
          <mxGeometry x="282" y="254" width="60" height="30" as="geometry" />
        </mxCell>
        <mxCell id="wcmJC4ws4vvmKw_JKWgn-18" value="orders" style="text;strokeColor=none;align=center;fillColor=none;html=1;verticalAlign=middle;whiteSpace=wrap;rounded=0;" vertex="1" parent="1">
          <mxGeometry x="198.5" y="254" width="60" height="30" as="geometry" />
        </mxCell>
        <mxCell id="wcmJC4ws4vvmKw_JKWgn-20" value="" style="ellipse;whiteSpace=wrap;html=1;rotation=90;" vertex="1" parent="1">
          <mxGeometry x="132.5" y="133.75" width="186" height="62.5" as="geometry" />
        </mxCell>
        <mxCell id="wcmJC4ws4vvmKw_JKWgn-21" value="" style="ellipse;whiteSpace=wrap;html=1;rotation=90;" vertex="1" parent="1">
          <mxGeometry x="230.75" y="133.5" width="162.5" height="62.5" as="geometry" />
        </mxCell>
        <mxCell id="wcmJC4ws4vvmKw_JKWgn-46" style="rounded=0;orthogonalLoop=1;jettySize=auto;html=1;exitX=1;exitY=0.5;exitDx=0;exitDy=0;entryX=0;entryY=0.5;entryDx=0;entryDy=0;endArrow=none;endFill=0;" edge="1" parent="1" source="wcmJC4ws4vvmKw_JKWgn-22" target="wcmJC4ws4vvmKw_JKWgn-39">
          <mxGeometry relative="1" as="geometry" />
        </mxCell>
        <mxCell id="wcmJC4ws4vvmKw_JKWgn-22" value="" style="ellipse;whiteSpace=wrap;html=1;aspect=fixed;fillColor=#000000;" vertex="1" parent="1">
          <mxGeometry x="134.5" y="111" width="10" height="10" as="geometry" />
        </mxCell>
        <mxCell id="wcmJC4ws4vvmKw_JKWgn-48" style="rounded=0;orthogonalLoop=1;jettySize=auto;html=1;exitX=1;exitY=0.5;exitDx=0;exitDy=0;entryX=0;entryY=0.5;entryDx=0;entryDy=0;endArrow=none;endFill=0;" edge="1" parent="1" source="wcmJC4ws4vvmKw_JKWgn-26" target="wcmJC4ws4vvmKw_JKWgn-41">
          <mxGeometry relative="1" as="geometry" />
        </mxCell>
        <mxCell id="wcmJC4ws4vvmKw_JKWgn-51" style="rounded=0;orthogonalLoop=1;jettySize=auto;html=1;exitX=1;exitY=0.5;exitDx=0;exitDy=0;entryX=0;entryY=0.5;entryDx=0;entryDy=0;endArrow=none;endFill=0;" edge="1" parent="1" source="wcmJC4ws4vvmKw_JKWgn-26" target="wcmJC4ws4vvmKw_JKWgn-42">
          <mxGeometry relative="1" as="geometry" />
        </mxCell>
        <mxCell id="wcmJC4ws4vvmKw_JKWgn-62" style="rounded=0;orthogonalLoop=1;jettySize=auto;html=1;exitX=1;exitY=0.5;exitDx=0;exitDy=0;entryX=0;entryY=0.75;entryDx=0;entryDy=0;endArrow=none;endFill=0;" edge="1" parent="1" source="wcmJC4ws4vvmKw_JKWgn-26" target="wcmJC4ws4vvmKw_JKWgn-43">
          <mxGeometry relative="1" as="geometry" />
        </mxCell>
        <mxCell id="wcmJC4ws4vvmKw_JKWgn-26" value="" style="ellipse;whiteSpace=wrap;html=1;aspect=fixed;fillColor=#000000;" vertex="1" parent="1">
          <mxGeometry x="134.5" y="133.5" width="10" height="10" as="geometry" />
        </mxCell>
        <mxCell id="wcmJC4ws4vvmKw_JKWgn-53" style="rounded=0;orthogonalLoop=1;jettySize=auto;html=1;exitX=1;exitY=0.5;exitDx=0;exitDy=0;entryX=0;entryY=0.5;entryDx=0;entryDy=0;endArrow=none;endFill=0;" edge="1" parent="1" source="wcmJC4ws4vvmKw_JKWgn-27" target="wcmJC4ws4vvmKw_JKWgn-52">
          <mxGeometry relative="1" as="geometry" />
        </mxCell>
        <mxCell id="wcmJC4ws4vvmKw_JKWgn-27" value="" style="ellipse;whiteSpace=wrap;html=1;aspect=fixed;fillColor=#000000;" vertex="1" parent="1">
          <mxGeometry x="134.5" y="154.5" width="10" height="10" as="geometry" />
        </mxCell>
        <mxCell id="wcmJC4ws4vvmKw_JKWgn-58" style="rounded=0;orthogonalLoop=1;jettySize=auto;html=1;exitX=1;exitY=0.5;exitDx=0;exitDy=0;entryX=0;entryY=0.5;entryDx=0;entryDy=0;endArrow=none;endFill=0;" edge="1" parent="1" source="wcmJC4ws4vvmKw_JKWgn-28" target="wcmJC4ws4vvmKw_JKWgn-60">
          <mxGeometry relative="1" as="geometry" />
        </mxCell>
        <mxCell id="wcmJC4ws4vvmKw_JKWgn-28" value="" style="ellipse;whiteSpace=wrap;html=1;aspect=fixed;fillColor=#000000;" vertex="1" parent="1">
          <mxGeometry x="134.5" y="177" width="10" height="10" as="geometry" />
        </mxCell>
        <mxCell id="wcmJC4ws4vvmKw_JKWgn-30" value="&lt;p style=&quot;line-height: 0%;&quot;&gt;&lt;span style=&quot;font-size: 15px;&quot;&gt;.&lt;/span&gt;&lt;/p&gt;&lt;p style=&quot;line-height: 0%;&quot;&gt;&lt;span style=&quot;font-size: 15px;&quot;&gt;.&lt;/span&gt;&lt;/p&gt;&lt;p style=&quot;line-height: 0%;&quot;&gt;&lt;span style=&quot;font-size: 15px;&quot;&gt;.&lt;/span&gt;&lt;/p&gt;&lt;p&gt;&lt;/p&gt;" style="text;strokeColor=none;align=center;fillColor=none;html=1;verticalAlign=middle;whiteSpace=wrap;rounded=0;" vertex="1" parent="1">
          <mxGeometry x="124.5" y="201" width="30" height="15" as="geometry" />
        </mxCell>
        <mxCell id="wcmJC4ws4vvmKw_JKWgn-31" value="" style="ellipse;whiteSpace=wrap;html=1;aspect=fixed;fillColor=#000000;" vertex="1" parent="1">
          <mxGeometry x="307" y="111" width="10" height="10" as="geometry" />
        </mxCell>
        <mxCell id="wcmJC4ws4vvmKw_JKWgn-32" value="" style="ellipse;whiteSpace=wrap;html=1;aspect=fixed;fillColor=#000000;" vertex="1" parent="1">
          <mxGeometry x="307" y="133.5" width="10" height="10" as="geometry" />
        </mxCell>
        <mxCell id="wcmJC4ws4vvmKw_JKWgn-55" style="rounded=0;orthogonalLoop=1;jettySize=auto;html=1;exitX=0;exitY=0.5;exitDx=0;exitDy=0;entryX=1;entryY=0.5;entryDx=0;entryDy=0;endArrow=none;endFill=0;" edge="1" parent="1" source="wcmJC4ws4vvmKw_JKWgn-33" target="wcmJC4ws4vvmKw_JKWgn-43">
          <mxGeometry relative="1" as="geometry" />
        </mxCell>
        <mxCell id="wcmJC4ws4vvmKw_JKWgn-56" style="rounded=0;orthogonalLoop=1;jettySize=auto;html=1;exitX=0;exitY=0.5;exitDx=0;exitDy=0;entryX=1;entryY=0.5;entryDx=0;entryDy=0;endArrow=none;endFill=0;" edge="1" parent="1" source="wcmJC4ws4vvmKw_JKWgn-33" target="wcmJC4ws4vvmKw_JKWgn-52">
          <mxGeometry relative="1" as="geometry" />
        </mxCell>
        <mxCell id="wcmJC4ws4vvmKw_JKWgn-33" value="" style="ellipse;whiteSpace=wrap;html=1;aspect=fixed;fillColor=#000000;" vertex="1" parent="1">
          <mxGeometry x="307" y="153.5" width="10" height="10" as="geometry" />
        </mxCell>
        <mxCell id="wcmJC4ws4vvmKw_JKWgn-57" style="rounded=0;orthogonalLoop=1;jettySize=auto;html=1;exitX=0;exitY=0.5;exitDx=0;exitDy=0;entryX=1;entryY=0.575;entryDx=0;entryDy=0;endArrow=none;endFill=0;entryPerimeter=0;" edge="1" parent="1" source="wcmJC4ws4vvmKw_JKWgn-34" target="wcmJC4ws4vvmKw_JKWgn-52">
          <mxGeometry relative="1" as="geometry" />
        </mxCell>
        <mxCell id="wcmJC4ws4vvmKw_JKWgn-63" style="rounded=0;orthogonalLoop=1;jettySize=auto;html=1;exitX=0;exitY=0.5;exitDx=0;exitDy=0;entryX=1;entryY=0.5;entryDx=0;entryDy=0;endArrow=none;endFill=0;" edge="1" parent="1" source="wcmJC4ws4vvmKw_JKWgn-34" target="wcmJC4ws4vvmKw_JKWgn-60">
          <mxGeometry relative="1" as="geometry" />
        </mxCell>
        <mxCell id="wcmJC4ws4vvmKw_JKWgn-34" value="" style="ellipse;whiteSpace=wrap;html=1;aspect=fixed;fillColor=#000000;" vertex="1" parent="1">
          <mxGeometry x="307" y="176" width="10" height="10" as="geometry" />
        </mxCell>
        <mxCell id="wcmJC4ws4vvmKw_JKWgn-47" style="rounded=0;orthogonalLoop=1;jettySize=auto;html=1;exitX=1;exitY=0.5;exitDx=0;exitDy=0;entryX=0;entryY=0.5;entryDx=0;entryDy=0;endArrow=none;endFill=0;" edge="1" parent="1" source="wcmJC4ws4vvmKw_JKWgn-39" target="wcmJC4ws4vvmKw_JKWgn-31">
          <mxGeometry relative="1" as="geometry" />
        </mxCell>
        <mxCell id="wcmJC4ws4vvmKw_JKWgn-39" value="" style="whiteSpace=wrap;html=1;aspect=fixed;fillColor=#000000;" vertex="1" parent="1">
          <mxGeometry x="220.75" y="90" width="10" height="10" as="geometry" />
        </mxCell>
        <mxCell id="wcmJC4ws4vvmKw_JKWgn-49" style="rounded=0;orthogonalLoop=1;jettySize=auto;html=1;exitX=1;exitY=0.5;exitDx=0;exitDy=0;entryX=0;entryY=0.5;entryDx=0;entryDy=0;endArrow=none;endFill=0;" edge="1" parent="1" source="wcmJC4ws4vvmKw_JKWgn-42" target="wcmJC4ws4vvmKw_JKWgn-34">
          <mxGeometry relative="1" as="geometry" />
        </mxCell>
        <mxCell id="wcmJC4ws4vvmKw_JKWgn-50" style="rounded=0;orthogonalLoop=1;jettySize=auto;html=1;exitX=1;exitY=0.5;exitDx=0;exitDy=0;entryX=0;entryY=1;entryDx=0;entryDy=0;endArrow=none;endFill=0;" edge="1" parent="1" source="wcmJC4ws4vvmKw_JKWgn-41" target="wcmJC4ws4vvmKw_JKWgn-31">
          <mxGeometry relative="1" as="geometry" />
        </mxCell>
        <mxCell id="wcmJC4ws4vvmKw_JKWgn-41" value="" style="whiteSpace=wrap;html=1;aspect=fixed;fillColor=#000000;" vertex="1" parent="1">
          <mxGeometry x="220.75" y="112.5" width="10" height="10" as="geometry" />
        </mxCell>
        <mxCell id="wcmJC4ws4vvmKw_JKWgn-42" value="" style="whiteSpace=wrap;html=1;aspect=fixed;fillColor=#000000;" vertex="1" parent="1">
          <mxGeometry x="220.75" y="133.5" width="10" height="10" as="geometry" />
        </mxCell>
        <mxCell id="wcmJC4ws4vvmKw_JKWgn-54" style="rounded=0;orthogonalLoop=1;jettySize=auto;html=1;exitX=1;exitY=0.25;exitDx=0;exitDy=0;entryX=0;entryY=0.5;entryDx=0;entryDy=0;endArrow=none;endFill=0;" edge="1" parent="1" source="wcmJC4ws4vvmKw_JKWgn-43" target="wcmJC4ws4vvmKw_JKWgn-32">
          <mxGeometry relative="1" as="geometry" />
        </mxCell>
        <mxCell id="wcmJC4ws4vvmKw_JKWgn-43" value="" style="whiteSpace=wrap;html=1;aspect=fixed;fillColor=#000000;" vertex="1" parent="1">
          <mxGeometry x="220.75" y="155" width="10" height="10" as="geometry" />
        </mxCell>
        <mxCell id="wcmJC4ws4vvmKw_JKWgn-44" value="&lt;p style=&quot;line-height: 0%;&quot;&gt;&lt;span style=&quot;font-size: 15px;&quot;&gt;.&lt;/span&gt;&lt;/p&gt;&lt;p style=&quot;line-height: 0%;&quot;&gt;&lt;span style=&quot;font-size: 15px;&quot;&gt;.&lt;/span&gt;&lt;/p&gt;&lt;p style=&quot;line-height: 0%;&quot;&gt;&lt;span style=&quot;font-size: 15px;&quot;&gt;.&lt;/span&gt;&lt;/p&gt;&lt;p&gt;&lt;/p&gt;" style="text;strokeColor=none;align=center;fillColor=none;html=1;verticalAlign=middle;whiteSpace=wrap;rounded=0;" vertex="1" parent="1">
          <mxGeometry x="210.75" y="216" width="30" height="15" as="geometry" />
        </mxCell>
        <mxCell id="wcmJC4ws4vvmKw_JKWgn-45" value="&lt;p style=&quot;line-height: 0%;&quot;&gt;&lt;span style=&quot;font-size: 15px;&quot;&gt;.&lt;/span&gt;&lt;/p&gt;&lt;p style=&quot;line-height: 0%;&quot;&gt;&lt;span style=&quot;font-size: 15px;&quot;&gt;.&lt;/span&gt;&lt;/p&gt;&lt;p style=&quot;line-height: 0%;&quot;&gt;&lt;span style=&quot;font-size: 15px;&quot;&gt;.&lt;/span&gt;&lt;/p&gt;&lt;p&gt;&lt;/p&gt;" style="text;strokeColor=none;align=center;fillColor=none;html=1;verticalAlign=middle;whiteSpace=wrap;rounded=0;" vertex="1" parent="1">
          <mxGeometry x="297" y="201" width="30" height="15" as="geometry" />
        </mxCell>
        <mxCell id="wcmJC4ws4vvmKw_JKWgn-52" value="" style="whiteSpace=wrap;html=1;aspect=fixed;fillColor=#000000;" vertex="1" parent="1">
          <mxGeometry x="220.75" y="177.25" width="10" height="10" as="geometry" />
        </mxCell>
        <mxCell id="wcmJC4ws4vvmKw_JKWgn-60" value="" style="whiteSpace=wrap;html=1;aspect=fixed;fillColor=#000000;" vertex="1" parent="1">
          <mxGeometry x="220.75" y="198" width="10" height="10" as="geometry" />
        </mxCell>
        <mxCell id="wcmJC4ws4vvmKw_JKWgn-64" value="c1" style="text;strokeColor=none;align=center;fillColor=none;html=1;verticalAlign=middle;whiteSpace=wrap;rounded=0;fontSize=10;" vertex="1" parent="1">
          <mxGeometry x="114.5" y="112.5" width="20" height="10" as="geometry" />
        </mxCell>
        <mxCell id="wcmJC4ws4vvmKw_JKWgn-65" value="c2" style="text;strokeColor=none;align=center;fillColor=none;html=1;verticalAlign=middle;whiteSpace=wrap;rounded=0;fontSize=10;" vertex="1" parent="1">
          <mxGeometry x="114.5" y="135" width="20" height="10" as="geometry" />
        </mxCell>
        <mxCell id="wcmJC4ws4vvmKw_JKWgn-67" value="c3" style="text;strokeColor=none;align=center;fillColor=none;html=1;verticalAlign=middle;whiteSpace=wrap;rounded=0;fontSize=10;" vertex="1" parent="1">
          <mxGeometry x="114.5" y="157.25" width="20" height="10" as="geometry" />
        </mxCell>
        <mxCell id="wcmJC4ws4vvmKw_JKWgn-68" value="c4" style="text;strokeColor=none;align=center;fillColor=none;html=1;verticalAlign=middle;whiteSpace=wrap;rounded=0;fontSize=10;" vertex="1" parent="1">
          <mxGeometry x="112.5" y="178" width="20" height="10" as="geometry" />
        </mxCell>
        <mxCell id="wcmJC4ws4vvmKw_JKWgn-69" value="r1" style="text;strokeColor=none;align=center;fillColor=none;html=1;verticalAlign=middle;whiteSpace=wrap;rounded=0;fontSize=10;" vertex="1" parent="1">
          <mxGeometry x="215.5" y="80" width="20" height="10" as="geometry" />
        </mxCell>
        <mxCell id="wcmJC4ws4vvmKw_JKWgn-70" value="r2" style="text;strokeColor=none;align=center;fillColor=none;html=1;verticalAlign=middle;whiteSpace=wrap;rounded=0;fontSize=10;" vertex="1" parent="1">
          <mxGeometry x="215.75" y="102.5" width="20" height="10" as="geometry" />
        </mxCell>
        <mxCell id="wcmJC4ws4vvmKw_JKWgn-71" value="r3" style="text;strokeColor=none;align=center;fillColor=none;html=1;verticalAlign=middle;whiteSpace=wrap;rounded=0;fontSize=10;" vertex="1" parent="1">
          <mxGeometry x="215.75" y="123.75" width="20" height="10" as="geometry" />
        </mxCell>
        <mxCell id="wcmJC4ws4vvmKw_JKWgn-73" value="r4" style="text;strokeColor=none;align=center;fillColor=none;html=1;verticalAlign=middle;whiteSpace=wrap;rounded=0;fontSize=10;" vertex="1" parent="1">
          <mxGeometry x="215.75" y="145" width="20" height="10" as="geometry" />
        </mxCell>
        <mxCell id="wcmJC4ws4vvmKw_JKWgn-74" value="r5" style="text;strokeColor=none;align=center;fillColor=none;html=1;verticalAlign=middle;whiteSpace=wrap;rounded=0;fontSize=10;" vertex="1" parent="1">
          <mxGeometry x="215.75" y="167.25" width="20" height="10" as="geometry" />
        </mxCell>
        <mxCell id="wcmJC4ws4vvmKw_JKWgn-75" value="r6" style="text;strokeColor=none;align=center;fillColor=none;html=1;verticalAlign=middle;whiteSpace=wrap;rounded=0;fontSize=10;" vertex="1" parent="1">
          <mxGeometry x="215.5" y="188" width="20" height="10" as="geometry" />
        </mxCell>
        <mxCell id="wcmJC4ws4vvmKw_JKWgn-76" value="p1" style="text;strokeColor=none;align=center;fillColor=none;html=1;verticalAlign=middle;whiteSpace=wrap;rounded=0;fontSize=10;" vertex="1" parent="1">
          <mxGeometry x="317" y="111" width="20" height="10" as="geometry" />
        </mxCell>
        <mxCell id="wcmJC4ws4vvmKw_JKWgn-77" value="p2" style="text;strokeColor=none;align=center;fillColor=none;html=1;verticalAlign=middle;whiteSpace=wrap;rounded=0;fontSize=10;" vertex="1" parent="1">
          <mxGeometry x="317" y="133.5" width="20" height="10" as="geometry" />
        </mxCell>
        <mxCell id="wcmJC4ws4vvmKw_JKWgn-78" value="p3" style="text;strokeColor=none;align=center;fillColor=none;html=1;verticalAlign=middle;whiteSpace=wrap;rounded=0;fontSize=10;" vertex="1" parent="1">
          <mxGeometry x="317" y="154.5" width="20" height="10" as="geometry" />
        </mxCell>
        <mxCell id="wcmJC4ws4vvmKw_JKWgn-79" value="p4" style="text;strokeColor=none;align=center;fillColor=none;html=1;verticalAlign=middle;whiteSpace=wrap;rounded=0;fontSize=10;" vertex="1" parent="1">
          <mxGeometry x="317" y="178" width="20" height="10" as="geometry" />
        </mxCell>
        <mxCell id="wcmJC4ws4vvmKw_JKWgn-80" value="" style="ellipse;whiteSpace=wrap;html=1;rotation=90;" vertex="1" parent="1">
          <mxGeometry x="380.75" y="134.5" width="162.5" height="62.5" as="geometry" />
        </mxCell>
        <mxCell id="wcmJC4ws4vvmKw_JKWgn-81" value="Customer" style="text;strokeColor=none;align=center;fillColor=none;html=1;verticalAlign=middle;whiteSpace=wrap;rounded=0;" vertex="1" parent="1">
          <mxGeometry x="432" y="255" width="60" height="30" as="geometry" />
        </mxCell>
        <mxCell id="wcmJC4ws4vvmKw_JKWgn-82" value="transaction" style="text;strokeColor=none;align=center;fillColor=none;html=1;verticalAlign=middle;whiteSpace=wrap;rounded=0;" vertex="1" parent="1">
          <mxGeometry x="604.5" y="255" width="60" height="30" as="geometry" />
        </mxCell>
        <mxCell id="wcmJC4ws4vvmKw_JKWgn-83" value="initiates" style="text;strokeColor=none;align=center;fillColor=none;html=1;verticalAlign=middle;whiteSpace=wrap;rounded=0;" vertex="1" parent="1">
          <mxGeometry x="521" y="255" width="60" height="30" as="geometry" />
        </mxCell>
        <mxCell id="wcmJC4ws4vvmKw_JKWgn-84" value="" style="ellipse;whiteSpace=wrap;html=1;rotation=90;" vertex="1" parent="1">
          <mxGeometry x="455" y="134.75" width="186" height="62.5" as="geometry" />
        </mxCell>
        <mxCell id="wcmJC4ws4vvmKw_JKWgn-85" value="" style="ellipse;whiteSpace=wrap;html=1;rotation=90;" vertex="1" parent="1">
          <mxGeometry x="547" y="131.25" width="175" height="62.5" as="geometry" />
        </mxCell>
        <mxCell id="wcmJC4ws4vvmKw_JKWgn-86" style="rounded=0;orthogonalLoop=1;jettySize=auto;html=1;exitX=1;exitY=0.5;exitDx=0;exitDy=0;entryX=0;entryY=0.5;entryDx=0;entryDy=0;endArrow=none;endFill=0;" edge="1" parent="1" source="wcmJC4ws4vvmKw_JKWgn-87" target="wcmJC4ws4vvmKw_JKWgn-106">
          <mxGeometry relative="1" as="geometry" />
        </mxCell>
        <mxCell id="wcmJC4ws4vvmKw_JKWgn-87" value="" style="ellipse;whiteSpace=wrap;html=1;aspect=fixed;fillColor=#000000;" vertex="1" parent="1">
          <mxGeometry x="457" y="112" width="10" height="10" as="geometry" />
        </mxCell>
        <mxCell id="wcmJC4ws4vvmKw_JKWgn-88" style="rounded=0;orthogonalLoop=1;jettySize=auto;html=1;exitX=1;exitY=0.5;exitDx=0;exitDy=0;entryX=0;entryY=0.5;entryDx=0;entryDy=0;endArrow=none;endFill=0;" edge="1" parent="1" source="wcmJC4ws4vvmKw_JKWgn-91" target="wcmJC4ws4vvmKw_JKWgn-109">
          <mxGeometry relative="1" as="geometry" />
        </mxCell>
        <mxCell id="wcmJC4ws4vvmKw_JKWgn-90" style="rounded=0;orthogonalLoop=1;jettySize=auto;html=1;exitX=1;exitY=0.5;exitDx=0;exitDy=0;entryX=0;entryY=0.5;entryDx=0;entryDy=0;endArrow=none;endFill=0;" edge="1" parent="1" source="wcmJC4ws4vvmKw_JKWgn-91" target="wcmJC4ws4vvmKw_JKWgn-115">
          <mxGeometry relative="1" as="geometry" />
        </mxCell>
        <mxCell id="wcmJC4ws4vvmKw_JKWgn-91" value="" style="ellipse;whiteSpace=wrap;html=1;aspect=fixed;fillColor=#000000;" vertex="1" parent="1">
          <mxGeometry x="457" y="134.5" width="10" height="10" as="geometry" />
        </mxCell>
        <mxCell id="wcmJC4ws4vvmKw_JKWgn-92" style="rounded=0;orthogonalLoop=1;jettySize=auto;html=1;exitX=1;exitY=0.5;exitDx=0;exitDy=0;entryX=0;entryY=0.5;entryDx=0;entryDy=0;endArrow=none;endFill=0;" edge="1" parent="1" source="wcmJC4ws4vvmKw_JKWgn-93" target="wcmJC4ws4vvmKw_JKWgn-112">
          <mxGeometry relative="1" as="geometry" />
        </mxCell>
        <mxCell id="wcmJC4ws4vvmKw_JKWgn-131" style="rounded=0;orthogonalLoop=1;jettySize=auto;html=1;exitX=1;exitY=0.5;exitDx=0;exitDy=0;entryX=0;entryY=0.75;entryDx=0;entryDy=0;endArrow=none;endFill=0;" edge="1" parent="1" source="wcmJC4ws4vvmKw_JKWgn-93" target="wcmJC4ws4vvmKw_JKWgn-110">
          <mxGeometry relative="1" as="geometry" />
        </mxCell>
        <mxCell id="wcmJC4ws4vvmKw_JKWgn-93" value="" style="ellipse;whiteSpace=wrap;html=1;aspect=fixed;fillColor=#000000;" vertex="1" parent="1">
          <mxGeometry x="457" y="155.5" width="10" height="10" as="geometry" />
        </mxCell>
        <mxCell id="wcmJC4ws4vvmKw_JKWgn-94" style="rounded=0;orthogonalLoop=1;jettySize=auto;html=1;exitX=1;exitY=0.5;exitDx=0;exitDy=0;entryX=0;entryY=0.5;entryDx=0;entryDy=0;endArrow=none;endFill=0;" edge="1" parent="1" source="wcmJC4ws4vvmKw_JKWgn-95" target="wcmJC4ws4vvmKw_JKWgn-116">
          <mxGeometry relative="1" as="geometry" />
        </mxCell>
        <mxCell id="wcmJC4ws4vvmKw_JKWgn-95" value="" style="ellipse;whiteSpace=wrap;html=1;aspect=fixed;fillColor=#000000;" vertex="1" parent="1">
          <mxGeometry x="457" y="178" width="10" height="10" as="geometry" />
        </mxCell>
        <mxCell id="wcmJC4ws4vvmKw_JKWgn-96" value="&lt;p style=&quot;line-height: 0%;&quot;&gt;&lt;span style=&quot;font-size: 15px;&quot;&gt;.&lt;/span&gt;&lt;/p&gt;&lt;p style=&quot;line-height: 0%;&quot;&gt;&lt;span style=&quot;font-size: 15px;&quot;&gt;.&lt;/span&gt;&lt;/p&gt;&lt;p style=&quot;line-height: 0%;&quot;&gt;&lt;span style=&quot;font-size: 15px;&quot;&gt;.&lt;/span&gt;&lt;/p&gt;&lt;p&gt;&lt;/p&gt;" style="text;strokeColor=none;align=center;fillColor=none;html=1;verticalAlign=middle;whiteSpace=wrap;rounded=0;" vertex="1" parent="1">
          <mxGeometry x="447" y="202" width="30" height="15" as="geometry" />
        </mxCell>
        <mxCell id="wcmJC4ws4vvmKw_JKWgn-97" value="" style="ellipse;whiteSpace=wrap;html=1;aspect=fixed;fillColor=#000000;" vertex="1" parent="1">
          <mxGeometry x="629.5" y="91" width="10" height="10" as="geometry" />
        </mxCell>
        <mxCell id="wcmJC4ws4vvmKw_JKWgn-98" value="" style="ellipse;whiteSpace=wrap;html=1;aspect=fixed;fillColor=#000000;" vertex="1" parent="1">
          <mxGeometry x="629.5" y="113.5" width="11.25" height="11.25" as="geometry" />
        </mxCell>
        <mxCell id="wcmJC4ws4vvmKw_JKWgn-101" value="" style="ellipse;whiteSpace=wrap;html=1;aspect=fixed;fillColor=#000000;" vertex="1" parent="1">
          <mxGeometry x="629.5" y="133.5" width="10" height="10" as="geometry" />
        </mxCell>
        <mxCell id="wcmJC4ws4vvmKw_JKWgn-102" style="rounded=0;orthogonalLoop=1;jettySize=auto;html=1;exitX=0;exitY=0.5;exitDx=0;exitDy=0;entryX=1;entryY=0.5;entryDx=0;entryDy=0;endArrow=none;endFill=0;" edge="1" parent="1" source="wcmJC4ws4vvmKw_JKWgn-104" target="wcmJC4ws4vvmKw_JKWgn-112">
          <mxGeometry relative="1" as="geometry" />
        </mxCell>
        <mxCell id="wcmJC4ws4vvmKw_JKWgn-104" value="" style="ellipse;whiteSpace=wrap;html=1;aspect=fixed;fillColor=#000000;" vertex="1" parent="1">
          <mxGeometry x="629.5" y="156" width="10" height="10" as="geometry" />
        </mxCell>
        <mxCell id="wcmJC4ws4vvmKw_JKWgn-105" style="rounded=0;orthogonalLoop=1;jettySize=auto;html=1;exitX=1;exitY=0.5;exitDx=0;exitDy=0;entryX=0;entryY=0.5;entryDx=0;entryDy=0;endArrow=none;endFill=0;" edge="1" parent="1" source="wcmJC4ws4vvmKw_JKWgn-106" target="wcmJC4ws4vvmKw_JKWgn-97">
          <mxGeometry relative="1" as="geometry" />
        </mxCell>
        <mxCell id="wcmJC4ws4vvmKw_JKWgn-106" value="" style="whiteSpace=wrap;html=1;aspect=fixed;fillColor=#000000;" vertex="1" parent="1">
          <mxGeometry x="543.25" y="91" width="10" height="10" as="geometry" />
        </mxCell>
        <mxCell id="wcmJC4ws4vvmKw_JKWgn-107" style="rounded=0;orthogonalLoop=1;jettySize=auto;html=1;exitX=1;exitY=0.5;exitDx=0;exitDy=0;entryX=0.125;entryY=0.5;entryDx=0;entryDy=0;endArrow=none;endFill=0;entryPerimeter=0;" edge="1" parent="1" source="wcmJC4ws4vvmKw_JKWgn-110" target="wcmJC4ws4vvmKw_JKWgn-101">
          <mxGeometry relative="1" as="geometry" />
        </mxCell>
        <mxCell id="wcmJC4ws4vvmKw_JKWgn-108" style="rounded=0;orthogonalLoop=1;jettySize=auto;html=1;exitX=1;exitY=0.5;exitDx=0;exitDy=0;entryX=0;entryY=0.5;entryDx=0;entryDy=0;endArrow=none;endFill=0;" edge="1" parent="1" source="wcmJC4ws4vvmKw_JKWgn-109" target="wcmJC4ws4vvmKw_JKWgn-98">
          <mxGeometry relative="1" as="geometry" />
        </mxCell>
        <mxCell id="wcmJC4ws4vvmKw_JKWgn-109" value="" style="whiteSpace=wrap;html=1;aspect=fixed;fillColor=#000000;" vertex="1" parent="1">
          <mxGeometry x="543.25" y="113.5" width="10" height="10" as="geometry" />
        </mxCell>
        <mxCell id="wcmJC4ws4vvmKw_JKWgn-110" value="" style="whiteSpace=wrap;html=1;aspect=fixed;fillColor=#000000;" vertex="1" parent="1">
          <mxGeometry x="543.25" y="134.5" width="10" height="10" as="geometry" />
        </mxCell>
        <mxCell id="wcmJC4ws4vvmKw_JKWgn-112" value="" style="whiteSpace=wrap;html=1;aspect=fixed;fillColor=#000000;" vertex="1" parent="1">
          <mxGeometry x="543.25" y="156" width="10" height="10" as="geometry" />
        </mxCell>
        <mxCell id="wcmJC4ws4vvmKw_JKWgn-113" value="&lt;p style=&quot;line-height: 0%;&quot;&gt;&lt;span style=&quot;font-size: 15px;&quot;&gt;.&lt;/span&gt;&lt;/p&gt;&lt;p style=&quot;line-height: 0%;&quot;&gt;&lt;span style=&quot;font-size: 15px;&quot;&gt;.&lt;/span&gt;&lt;/p&gt;&lt;p style=&quot;line-height: 0%;&quot;&gt;&lt;span style=&quot;font-size: 15px;&quot;&gt;.&lt;/span&gt;&lt;/p&gt;&lt;p&gt;&lt;/p&gt;" style="text;strokeColor=none;align=center;fillColor=none;html=1;verticalAlign=middle;whiteSpace=wrap;rounded=0;" vertex="1" parent="1">
          <mxGeometry x="533.25" y="217" width="30" height="15" as="geometry" />
        </mxCell>
        <mxCell id="wcmJC4ws4vvmKw_JKWgn-114" value="&lt;p style=&quot;line-height: 0%;&quot;&gt;&lt;span style=&quot;font-size: 15px;&quot;&gt;.&lt;/span&gt;&lt;/p&gt;&lt;p style=&quot;line-height: 0%;&quot;&gt;&lt;span style=&quot;font-size: 15px;&quot;&gt;.&lt;/span&gt;&lt;/p&gt;&lt;p style=&quot;line-height: 0%;&quot;&gt;&lt;span style=&quot;font-size: 15px;&quot;&gt;.&lt;/span&gt;&lt;/p&gt;&lt;p&gt;&lt;/p&gt;" style="text;strokeColor=none;align=center;fillColor=none;html=1;verticalAlign=middle;whiteSpace=wrap;rounded=0;" vertex="1" parent="1">
          <mxGeometry x="619.5" y="214" width="30" height="15" as="geometry" />
        </mxCell>
        <mxCell id="wcmJC4ws4vvmKw_JKWgn-136" style="rounded=0;orthogonalLoop=1;jettySize=auto;html=1;exitX=1;exitY=0.5;exitDx=0;exitDy=0;entryX=0;entryY=0.5;entryDx=0;entryDy=0;endArrow=none;endFill=0;" edge="1" parent="1" source="wcmJC4ws4vvmKw_JKWgn-115" target="wcmJC4ws4vvmKw_JKWgn-134">
          <mxGeometry relative="1" as="geometry" />
        </mxCell>
        <mxCell id="wcmJC4ws4vvmKw_JKWgn-115" value="" style="whiteSpace=wrap;html=1;aspect=fixed;fillColor=#000000;" vertex="1" parent="1">
          <mxGeometry x="543.25" y="178.25" width="10" height="10" as="geometry" />
        </mxCell>
        <mxCell id="wcmJC4ws4vvmKw_JKWgn-140" style="rounded=0;orthogonalLoop=1;jettySize=auto;html=1;exitX=1;exitY=0.5;exitDx=0;exitDy=0;entryX=0;entryY=0.5;entryDx=0;entryDy=0;endArrow=none;endFill=0;" edge="1" parent="1" source="wcmJC4ws4vvmKw_JKWgn-116" target="wcmJC4ws4vvmKw_JKWgn-137">
          <mxGeometry relative="1" as="geometry" />
        </mxCell>
        <mxCell id="wcmJC4ws4vvmKw_JKWgn-116" value="" style="whiteSpace=wrap;html=1;aspect=fixed;fillColor=#000000;" vertex="1" parent="1">
          <mxGeometry x="543.25" y="199" width="10" height="10" as="geometry" />
        </mxCell>
        <mxCell id="wcmJC4ws4vvmKw_JKWgn-117" value="c1" style="text;strokeColor=none;align=center;fillColor=none;html=1;verticalAlign=middle;whiteSpace=wrap;rounded=0;fontSize=10;" vertex="1" parent="1">
          <mxGeometry x="437" y="113.5" width="20" height="10" as="geometry" />
        </mxCell>
        <mxCell id="wcmJC4ws4vvmKw_JKWgn-118" value="c2" style="text;strokeColor=none;align=center;fillColor=none;html=1;verticalAlign=middle;whiteSpace=wrap;rounded=0;fontSize=10;" vertex="1" parent="1">
          <mxGeometry x="437" y="136" width="20" height="10" as="geometry" />
        </mxCell>
        <mxCell id="wcmJC4ws4vvmKw_JKWgn-119" value="c3" style="text;strokeColor=none;align=center;fillColor=none;html=1;verticalAlign=middle;whiteSpace=wrap;rounded=0;fontSize=10;" vertex="1" parent="1">
          <mxGeometry x="437" y="158.25" width="20" height="10" as="geometry" />
        </mxCell>
        <mxCell id="wcmJC4ws4vvmKw_JKWgn-120" value="c4" style="text;strokeColor=none;align=center;fillColor=none;html=1;verticalAlign=middle;whiteSpace=wrap;rounded=0;fontSize=10;" vertex="1" parent="1">
          <mxGeometry x="435" y="179" width="20" height="10" as="geometry" />
        </mxCell>
        <mxCell id="wcmJC4ws4vvmKw_JKWgn-121" value="r1" style="text;strokeColor=none;align=center;fillColor=none;html=1;verticalAlign=middle;whiteSpace=wrap;rounded=0;fontSize=10;" vertex="1" parent="1">
          <mxGeometry x="538" y="81" width="20" height="10" as="geometry" />
        </mxCell>
        <mxCell id="wcmJC4ws4vvmKw_JKWgn-122" value="r2" style="text;strokeColor=none;align=center;fillColor=none;html=1;verticalAlign=middle;whiteSpace=wrap;rounded=0;fontSize=10;" vertex="1" parent="1">
          <mxGeometry x="538.25" y="103.5" width="20" height="10" as="geometry" />
        </mxCell>
        <mxCell id="wcmJC4ws4vvmKw_JKWgn-123" value="r3" style="text;strokeColor=none;align=center;fillColor=none;html=1;verticalAlign=middle;whiteSpace=wrap;rounded=0;fontSize=10;" vertex="1" parent="1">
          <mxGeometry x="538.25" y="124.75" width="20" height="10" as="geometry" />
        </mxCell>
        <mxCell id="wcmJC4ws4vvmKw_JKWgn-124" value="r4" style="text;strokeColor=none;align=center;fillColor=none;html=1;verticalAlign=middle;whiteSpace=wrap;rounded=0;fontSize=10;" vertex="1" parent="1">
          <mxGeometry x="538.25" y="146" width="20" height="10" as="geometry" />
        </mxCell>
        <mxCell id="wcmJC4ws4vvmKw_JKWgn-125" value="r5" style="text;strokeColor=none;align=center;fillColor=none;html=1;verticalAlign=middle;whiteSpace=wrap;rounded=0;fontSize=10;" vertex="1" parent="1">
          <mxGeometry x="538.25" y="168.25" width="20" height="10" as="geometry" />
        </mxCell>
        <mxCell id="wcmJC4ws4vvmKw_JKWgn-126" value="r6" style="text;strokeColor=none;align=center;fillColor=none;html=1;verticalAlign=middle;whiteSpace=wrap;rounded=0;fontSize=10;" vertex="1" parent="1">
          <mxGeometry x="538" y="189" width="20" height="10" as="geometry" />
        </mxCell>
        <mxCell id="wcmJC4ws4vvmKw_JKWgn-127" value="t1" style="text;strokeColor=none;align=center;fillColor=none;html=1;verticalAlign=middle;whiteSpace=wrap;rounded=0;fontSize=10;" vertex="1" parent="1">
          <mxGeometry x="639.5" y="91" width="20" height="10" as="geometry" />
        </mxCell>
        <mxCell id="wcmJC4ws4vvmKw_JKWgn-128" value="t2" style="text;strokeColor=none;align=center;fillColor=none;html=1;verticalAlign=middle;whiteSpace=wrap;rounded=0;fontSize=10;" vertex="1" parent="1">
          <mxGeometry x="639.5" y="113.5" width="20" height="10" as="geometry" />
        </mxCell>
        <mxCell id="wcmJC4ws4vvmKw_JKWgn-129" value="t3" style="text;strokeColor=none;align=center;fillColor=none;html=1;verticalAlign=middle;whiteSpace=wrap;rounded=0;fontSize=10;" vertex="1" parent="1">
          <mxGeometry x="639.5" y="134.5" width="20" height="10" as="geometry" />
        </mxCell>
        <mxCell id="wcmJC4ws4vvmKw_JKWgn-130" value="t4" style="text;strokeColor=none;align=center;fillColor=none;html=1;verticalAlign=middle;whiteSpace=wrap;rounded=0;fontSize=10;" vertex="1" parent="1">
          <mxGeometry x="639.5" y="158" width="20" height="10" as="geometry" />
        </mxCell>
        <mxCell id="wcmJC4ws4vvmKw_JKWgn-134" value="" style="ellipse;whiteSpace=wrap;html=1;aspect=fixed;fillColor=#000000;" vertex="1" parent="1">
          <mxGeometry x="629.5" y="176.25" width="10" height="10" as="geometry" />
        </mxCell>
        <mxCell id="wcmJC4ws4vvmKw_JKWgn-135" value="t5" style="text;strokeColor=none;align=center;fillColor=none;html=1;verticalAlign=middle;whiteSpace=wrap;rounded=0;fontSize=10;" vertex="1" parent="1">
          <mxGeometry x="639.5" y="178.25" width="20" height="10" as="geometry" />
        </mxCell>
        <mxCell id="wcmJC4ws4vvmKw_JKWgn-137" value="" style="ellipse;whiteSpace=wrap;html=1;aspect=fixed;fillColor=#000000;" vertex="1" parent="1">
          <mxGeometry x="629.5" y="196" width="10" height="10" as="geometry" />
        </mxCell>
        <mxCell id="wcmJC4ws4vvmKw_JKWgn-138" value="t5" style="text;strokeColor=none;align=center;fillColor=none;html=1;verticalAlign=middle;whiteSpace=wrap;rounded=0;fontSize=10;" vertex="1" parent="1">
          <mxGeometry x="639.5" y="198" width="20" height="10" as="geometry" />
        </mxCell>
        <mxCell id="wcmJC4ws4vvmKw_JKWgn-194" value="" style="ellipse;whiteSpace=wrap;html=1;rotation=90;" vertex="1" parent="1">
          <mxGeometry x="380.75" y="395.5" width="162.5" height="62.5" as="geometry" />
        </mxCell>
        <mxCell id="wcmJC4ws4vvmKw_JKWgn-195" value="Supplier" style="text;strokeColor=none;align=center;fillColor=none;html=1;verticalAlign=middle;whiteSpace=wrap;rounded=0;" vertex="1" parent="1">
          <mxGeometry x="432" y="516" width="60" height="30" as="geometry" />
        </mxCell>
        <mxCell id="wcmJC4ws4vvmKw_JKWgn-196" value="Product" style="text;strokeColor=none;align=center;fillColor=none;html=1;verticalAlign=middle;whiteSpace=wrap;rounded=0;" vertex="1" parent="1">
          <mxGeometry x="604.5" y="516" width="60" height="30" as="geometry" />
        </mxCell>
        <mxCell id="wcmJC4ws4vvmKw_JKWgn-197" value="supplies" style="text;strokeColor=none;align=center;fillColor=none;html=1;verticalAlign=middle;whiteSpace=wrap;rounded=0;" vertex="1" parent="1">
          <mxGeometry x="521" y="516" width="60" height="30" as="geometry" />
        </mxCell>
        <mxCell id="wcmJC4ws4vvmKw_JKWgn-198" value="" style="ellipse;whiteSpace=wrap;html=1;rotation=90;" vertex="1" parent="1">
          <mxGeometry x="455" y="395.75" width="186" height="62.5" as="geometry" />
        </mxCell>
        <mxCell id="wcmJC4ws4vvmKw_JKWgn-199" value="" style="ellipse;whiteSpace=wrap;html=1;rotation=90;" vertex="1" parent="1">
          <mxGeometry x="547" y="392.25" width="175" height="62.5" as="geometry" />
        </mxCell>
        <mxCell id="wcmJC4ws4vvmKw_JKWgn-200" style="rounded=0;orthogonalLoop=1;jettySize=auto;html=1;exitX=1;exitY=0.5;exitDx=0;exitDy=0;entryX=0;entryY=0.5;entryDx=0;entryDy=0;endArrow=none;endFill=0;" edge="1" parent="1" source="wcmJC4ws4vvmKw_JKWgn-201" target="wcmJC4ws4vvmKw_JKWgn-217">
          <mxGeometry relative="1" as="geometry" />
        </mxCell>
        <mxCell id="wcmJC4ws4vvmKw_JKWgn-201" value="" style="ellipse;whiteSpace=wrap;html=1;aspect=fixed;fillColor=#000000;" vertex="1" parent="1">
          <mxGeometry x="457" y="373" width="10" height="10" as="geometry" />
        </mxCell>
        <mxCell id="wcmJC4ws4vvmKw_JKWgn-202" style="rounded=0;orthogonalLoop=1;jettySize=auto;html=1;exitX=1;exitY=0.5;exitDx=0;exitDy=0;entryX=0;entryY=0.5;entryDx=0;entryDy=0;endArrow=none;endFill=0;" edge="1" parent="1" source="wcmJC4ws4vvmKw_JKWgn-204" target="wcmJC4ws4vvmKw_JKWgn-220">
          <mxGeometry relative="1" as="geometry" />
        </mxCell>
        <mxCell id="wcmJC4ws4vvmKw_JKWgn-203" style="rounded=0;orthogonalLoop=1;jettySize=auto;html=1;exitX=1;exitY=0.5;exitDx=0;exitDy=0;entryX=0;entryY=0.5;entryDx=0;entryDy=0;endArrow=none;endFill=0;" edge="1" parent="1" source="wcmJC4ws4vvmKw_JKWgn-204" target="wcmJC4ws4vvmKw_JKWgn-226">
          <mxGeometry relative="1" as="geometry" />
        </mxCell>
        <mxCell id="wcmJC4ws4vvmKw_JKWgn-204" value="" style="ellipse;whiteSpace=wrap;html=1;aspect=fixed;fillColor=#000000;" vertex="1" parent="1">
          <mxGeometry x="457" y="395.5" width="10" height="10" as="geometry" />
        </mxCell>
        <mxCell id="wcmJC4ws4vvmKw_JKWgn-205" style="rounded=0;orthogonalLoop=1;jettySize=auto;html=1;exitX=1;exitY=0.5;exitDx=0;exitDy=0;entryX=0;entryY=0.5;entryDx=0;entryDy=0;endArrow=none;endFill=0;" edge="1" parent="1" source="wcmJC4ws4vvmKw_JKWgn-207" target="wcmJC4ws4vvmKw_JKWgn-222">
          <mxGeometry relative="1" as="geometry" />
        </mxCell>
        <mxCell id="wcmJC4ws4vvmKw_JKWgn-206" style="rounded=0;orthogonalLoop=1;jettySize=auto;html=1;exitX=1;exitY=0.5;exitDx=0;exitDy=0;entryX=0;entryY=0.75;entryDx=0;entryDy=0;endArrow=none;endFill=0;" edge="1" parent="1" source="wcmJC4ws4vvmKw_JKWgn-207" target="wcmJC4ws4vvmKw_JKWgn-221">
          <mxGeometry relative="1" as="geometry" />
        </mxCell>
        <mxCell id="wcmJC4ws4vvmKw_JKWgn-207" value="" style="ellipse;whiteSpace=wrap;html=1;aspect=fixed;fillColor=#000000;" vertex="1" parent="1">
          <mxGeometry x="457" y="416.5" width="10" height="10" as="geometry" />
        </mxCell>
        <mxCell id="wcmJC4ws4vvmKw_JKWgn-208" style="rounded=0;orthogonalLoop=1;jettySize=auto;html=1;exitX=1;exitY=0.5;exitDx=0;exitDy=0;entryX=0;entryY=0.5;entryDx=0;entryDy=0;endArrow=none;endFill=0;" edge="1" parent="1" source="wcmJC4ws4vvmKw_JKWgn-209" target="wcmJC4ws4vvmKw_JKWgn-228">
          <mxGeometry relative="1" as="geometry" />
        </mxCell>
        <mxCell id="wcmJC4ws4vvmKw_JKWgn-209" value="" style="ellipse;whiteSpace=wrap;html=1;aspect=fixed;fillColor=#000000;" vertex="1" parent="1">
          <mxGeometry x="457" y="439" width="10" height="10" as="geometry" />
        </mxCell>
        <mxCell id="wcmJC4ws4vvmKw_JKWgn-210" value="&lt;p style=&quot;line-height: 0%;&quot;&gt;&lt;span style=&quot;font-size: 15px;&quot;&gt;.&lt;/span&gt;&lt;/p&gt;&lt;p style=&quot;line-height: 0%;&quot;&gt;&lt;span style=&quot;font-size: 15px;&quot;&gt;.&lt;/span&gt;&lt;/p&gt;&lt;p style=&quot;line-height: 0%;&quot;&gt;&lt;span style=&quot;font-size: 15px;&quot;&gt;.&lt;/span&gt;&lt;/p&gt;&lt;p&gt;&lt;/p&gt;" style="text;strokeColor=none;align=center;fillColor=none;html=1;verticalAlign=middle;whiteSpace=wrap;rounded=0;" vertex="1" parent="1">
          <mxGeometry x="447" y="463" width="30" height="15" as="geometry" />
        </mxCell>
        <mxCell id="wcmJC4ws4vvmKw_JKWgn-211" value="" style="ellipse;whiteSpace=wrap;html=1;aspect=fixed;fillColor=#000000;" vertex="1" parent="1">
          <mxGeometry x="629.5" y="352" width="10" height="10" as="geometry" />
        </mxCell>
        <mxCell id="wcmJC4ws4vvmKw_JKWgn-212" value="" style="ellipse;whiteSpace=wrap;html=1;aspect=fixed;fillColor=#000000;" vertex="1" parent="1">
          <mxGeometry x="629.5" y="374.5" width="11.25" height="11.25" as="geometry" />
        </mxCell>
        <mxCell id="wcmJC4ws4vvmKw_JKWgn-213" value="" style="ellipse;whiteSpace=wrap;html=1;aspect=fixed;fillColor=#000000;" vertex="1" parent="1">
          <mxGeometry x="629.5" y="394.5" width="10" height="10" as="geometry" />
        </mxCell>
        <mxCell id="wcmJC4ws4vvmKw_JKWgn-214" style="rounded=0;orthogonalLoop=1;jettySize=auto;html=1;exitX=0;exitY=0.5;exitDx=0;exitDy=0;entryX=1;entryY=0.5;entryDx=0;entryDy=0;endArrow=none;endFill=0;" edge="1" parent="1" source="wcmJC4ws4vvmKw_JKWgn-215" target="wcmJC4ws4vvmKw_JKWgn-222">
          <mxGeometry relative="1" as="geometry" />
        </mxCell>
        <mxCell id="wcmJC4ws4vvmKw_JKWgn-215" value="" style="ellipse;whiteSpace=wrap;html=1;aspect=fixed;fillColor=#000000;" vertex="1" parent="1">
          <mxGeometry x="629.5" y="417" width="10" height="10" as="geometry" />
        </mxCell>
        <mxCell id="wcmJC4ws4vvmKw_JKWgn-216" style="rounded=0;orthogonalLoop=1;jettySize=auto;html=1;exitX=1;exitY=0.5;exitDx=0;exitDy=0;entryX=0;entryY=0.5;entryDx=0;entryDy=0;endArrow=none;endFill=0;" edge="1" parent="1" source="wcmJC4ws4vvmKw_JKWgn-217" target="wcmJC4ws4vvmKw_JKWgn-211">
          <mxGeometry relative="1" as="geometry" />
        </mxCell>
        <mxCell id="wcmJC4ws4vvmKw_JKWgn-217" value="" style="whiteSpace=wrap;html=1;aspect=fixed;fillColor=#000000;" vertex="1" parent="1">
          <mxGeometry x="543.25" y="352" width="10" height="10" as="geometry" />
        </mxCell>
        <mxCell id="wcmJC4ws4vvmKw_JKWgn-218" style="rounded=0;orthogonalLoop=1;jettySize=auto;html=1;exitX=1;exitY=0.5;exitDx=0;exitDy=0;entryX=0.125;entryY=0.5;entryDx=0;entryDy=0;endArrow=none;endFill=0;entryPerimeter=0;" edge="1" parent="1" source="wcmJC4ws4vvmKw_JKWgn-221" target="wcmJC4ws4vvmKw_JKWgn-213">
          <mxGeometry relative="1" as="geometry" />
        </mxCell>
        <mxCell id="wcmJC4ws4vvmKw_JKWgn-219" style="rounded=0;orthogonalLoop=1;jettySize=auto;html=1;exitX=1;exitY=0.5;exitDx=0;exitDy=0;entryX=0;entryY=0.5;entryDx=0;entryDy=0;endArrow=none;endFill=0;" edge="1" parent="1" source="wcmJC4ws4vvmKw_JKWgn-220" target="wcmJC4ws4vvmKw_JKWgn-212">
          <mxGeometry relative="1" as="geometry" />
        </mxCell>
        <mxCell id="wcmJC4ws4vvmKw_JKWgn-220" value="" style="whiteSpace=wrap;html=1;aspect=fixed;fillColor=#000000;" vertex="1" parent="1">
          <mxGeometry x="543.25" y="374.5" width="10" height="10" as="geometry" />
        </mxCell>
        <mxCell id="wcmJC4ws4vvmKw_JKWgn-221" value="" style="whiteSpace=wrap;html=1;aspect=fixed;fillColor=#000000;" vertex="1" parent="1">
          <mxGeometry x="543.25" y="395.5" width="10" height="10" as="geometry" />
        </mxCell>
        <mxCell id="wcmJC4ws4vvmKw_JKWgn-222" value="" style="whiteSpace=wrap;html=1;aspect=fixed;fillColor=#000000;" vertex="1" parent="1">
          <mxGeometry x="543.25" y="417" width="10" height="10" as="geometry" />
        </mxCell>
        <mxCell id="wcmJC4ws4vvmKw_JKWgn-223" value="&lt;p style=&quot;line-height: 0%;&quot;&gt;&lt;span style=&quot;font-size: 15px;&quot;&gt;.&lt;/span&gt;&lt;/p&gt;&lt;p style=&quot;line-height: 0%;&quot;&gt;&lt;span style=&quot;font-size: 15px;&quot;&gt;.&lt;/span&gt;&lt;/p&gt;&lt;p style=&quot;line-height: 0%;&quot;&gt;&lt;span style=&quot;font-size: 15px;&quot;&gt;.&lt;/span&gt;&lt;/p&gt;&lt;p&gt;&lt;/p&gt;" style="text;strokeColor=none;align=center;fillColor=none;html=1;verticalAlign=middle;whiteSpace=wrap;rounded=0;" vertex="1" parent="1">
          <mxGeometry x="533.25" y="478" width="30" height="15" as="geometry" />
        </mxCell>
        <mxCell id="wcmJC4ws4vvmKw_JKWgn-224" value="&lt;p style=&quot;line-height: 0%;&quot;&gt;&lt;span style=&quot;font-size: 15px;&quot;&gt;.&lt;/span&gt;&lt;/p&gt;&lt;p style=&quot;line-height: 0%;&quot;&gt;&lt;span style=&quot;font-size: 15px;&quot;&gt;.&lt;/span&gt;&lt;/p&gt;&lt;p style=&quot;line-height: 0%;&quot;&gt;&lt;span style=&quot;font-size: 15px;&quot;&gt;.&lt;/span&gt;&lt;/p&gt;&lt;p&gt;&lt;/p&gt;" style="text;strokeColor=none;align=center;fillColor=none;html=1;verticalAlign=middle;whiteSpace=wrap;rounded=0;" vertex="1" parent="1">
          <mxGeometry x="619.5" y="475" width="30" height="15" as="geometry" />
        </mxCell>
        <mxCell id="wcmJC4ws4vvmKw_JKWgn-225" style="rounded=0;orthogonalLoop=1;jettySize=auto;html=1;exitX=1;exitY=0.5;exitDx=0;exitDy=0;entryX=0;entryY=0.5;entryDx=0;entryDy=0;endArrow=none;endFill=0;" edge="1" parent="1" source="wcmJC4ws4vvmKw_JKWgn-226" target="wcmJC4ws4vvmKw_JKWgn-243">
          <mxGeometry relative="1" as="geometry" />
        </mxCell>
        <mxCell id="wcmJC4ws4vvmKw_JKWgn-226" value="" style="whiteSpace=wrap;html=1;aspect=fixed;fillColor=#000000;" vertex="1" parent="1">
          <mxGeometry x="543.25" y="439.25" width="10" height="10" as="geometry" />
        </mxCell>
        <mxCell id="wcmJC4ws4vvmKw_JKWgn-227" style="rounded=0;orthogonalLoop=1;jettySize=auto;html=1;exitX=1;exitY=0.5;exitDx=0;exitDy=0;entryX=0;entryY=0.5;entryDx=0;entryDy=0;endArrow=none;endFill=0;" edge="1" parent="1" source="wcmJC4ws4vvmKw_JKWgn-228" target="wcmJC4ws4vvmKw_JKWgn-245">
          <mxGeometry relative="1" as="geometry" />
        </mxCell>
        <mxCell id="wcmJC4ws4vvmKw_JKWgn-228" value="" style="whiteSpace=wrap;html=1;aspect=fixed;fillColor=#000000;" vertex="1" parent="1">
          <mxGeometry x="543.25" y="460" width="10" height="10" as="geometry" />
        </mxCell>
        <mxCell id="wcmJC4ws4vvmKw_JKWgn-229" value="s1" style="text;strokeColor=none;align=center;fillColor=none;html=1;verticalAlign=middle;whiteSpace=wrap;rounded=0;fontSize=10;" vertex="1" parent="1">
          <mxGeometry x="437" y="374.5" width="20" height="10" as="geometry" />
        </mxCell>
        <mxCell id="wcmJC4ws4vvmKw_JKWgn-230" value="s2" style="text;strokeColor=none;align=center;fillColor=none;html=1;verticalAlign=middle;whiteSpace=wrap;rounded=0;fontSize=10;" vertex="1" parent="1">
          <mxGeometry x="437" y="397" width="20" height="10" as="geometry" />
        </mxCell>
        <mxCell id="wcmJC4ws4vvmKw_JKWgn-231" value="s3" style="text;strokeColor=none;align=center;fillColor=none;html=1;verticalAlign=middle;whiteSpace=wrap;rounded=0;fontSize=10;" vertex="1" parent="1">
          <mxGeometry x="437" y="419.25" width="20" height="10" as="geometry" />
        </mxCell>
        <mxCell id="wcmJC4ws4vvmKw_JKWgn-232" value="s4" style="text;strokeColor=none;align=center;fillColor=none;html=1;verticalAlign=middle;whiteSpace=wrap;rounded=0;fontSize=10;" vertex="1" parent="1">
          <mxGeometry x="435" y="440" width="20" height="10" as="geometry" />
        </mxCell>
        <mxCell id="wcmJC4ws4vvmKw_JKWgn-233" value="r1" style="text;strokeColor=none;align=center;fillColor=none;html=1;verticalAlign=middle;whiteSpace=wrap;rounded=0;fontSize=10;" vertex="1" parent="1">
          <mxGeometry x="538" y="342" width="20" height="10" as="geometry" />
        </mxCell>
        <mxCell id="wcmJC4ws4vvmKw_JKWgn-234" value="r2" style="text;strokeColor=none;align=center;fillColor=none;html=1;verticalAlign=middle;whiteSpace=wrap;rounded=0;fontSize=10;" vertex="1" parent="1">
          <mxGeometry x="538.25" y="364.5" width="20" height="10" as="geometry" />
        </mxCell>
        <mxCell id="wcmJC4ws4vvmKw_JKWgn-235" value="r3" style="text;strokeColor=none;align=center;fillColor=none;html=1;verticalAlign=middle;whiteSpace=wrap;rounded=0;fontSize=10;" vertex="1" parent="1">
          <mxGeometry x="538.25" y="385.75" width="20" height="10" as="geometry" />
        </mxCell>
        <mxCell id="wcmJC4ws4vvmKw_JKWgn-236" value="r4" style="text;strokeColor=none;align=center;fillColor=none;html=1;verticalAlign=middle;whiteSpace=wrap;rounded=0;fontSize=10;" vertex="1" parent="1">
          <mxGeometry x="538.25" y="407" width="20" height="10" as="geometry" />
        </mxCell>
        <mxCell id="wcmJC4ws4vvmKw_JKWgn-237" value="r5" style="text;strokeColor=none;align=center;fillColor=none;html=1;verticalAlign=middle;whiteSpace=wrap;rounded=0;fontSize=10;" vertex="1" parent="1">
          <mxGeometry x="538.25" y="429.25" width="20" height="10" as="geometry" />
        </mxCell>
        <mxCell id="wcmJC4ws4vvmKw_JKWgn-238" value="r6" style="text;strokeColor=none;align=center;fillColor=none;html=1;verticalAlign=middle;whiteSpace=wrap;rounded=0;fontSize=10;" vertex="1" parent="1">
          <mxGeometry x="538" y="450" width="20" height="10" as="geometry" />
        </mxCell>
        <mxCell id="wcmJC4ws4vvmKw_JKWgn-239" value="p1" style="text;strokeColor=none;align=center;fillColor=none;html=1;verticalAlign=middle;whiteSpace=wrap;rounded=0;fontSize=10;" vertex="1" parent="1">
          <mxGeometry x="639.5" y="352" width="20" height="10" as="geometry" />
        </mxCell>
        <mxCell id="wcmJC4ws4vvmKw_JKWgn-240" value="p2" style="text;strokeColor=none;align=center;fillColor=none;html=1;verticalAlign=middle;whiteSpace=wrap;rounded=0;fontSize=10;" vertex="1" parent="1">
          <mxGeometry x="639.5" y="374.5" width="20" height="10" as="geometry" />
        </mxCell>
        <mxCell id="wcmJC4ws4vvmKw_JKWgn-241" value="p3" style="text;strokeColor=none;align=center;fillColor=none;html=1;verticalAlign=middle;whiteSpace=wrap;rounded=0;fontSize=10;" vertex="1" parent="1">
          <mxGeometry x="639.5" y="395.5" width="20" height="10" as="geometry" />
        </mxCell>
        <mxCell id="wcmJC4ws4vvmKw_JKWgn-242" value="p4" style="text;strokeColor=none;align=center;fillColor=none;html=1;verticalAlign=middle;whiteSpace=wrap;rounded=0;fontSize=10;" vertex="1" parent="1">
          <mxGeometry x="639.5" y="419" width="20" height="10" as="geometry" />
        </mxCell>
        <mxCell id="wcmJC4ws4vvmKw_JKWgn-243" value="" style="ellipse;whiteSpace=wrap;html=1;aspect=fixed;fillColor=#000000;" vertex="1" parent="1">
          <mxGeometry x="629.5" y="437.25" width="10" height="10" as="geometry" />
        </mxCell>
        <mxCell id="wcmJC4ws4vvmKw_JKWgn-244" value="p5" style="text;strokeColor=none;align=center;fillColor=none;html=1;verticalAlign=middle;whiteSpace=wrap;rounded=0;fontSize=10;" vertex="1" parent="1">
          <mxGeometry x="639.5" y="439.25" width="20" height="10" as="geometry" />
        </mxCell>
        <mxCell id="wcmJC4ws4vvmKw_JKWgn-245" value="" style="ellipse;whiteSpace=wrap;html=1;aspect=fixed;fillColor=#000000;" vertex="1" parent="1">
          <mxGeometry x="629.5" y="457" width="10" height="10" as="geometry" />
        </mxCell>
        <mxCell id="wcmJC4ws4vvmKw_JKWgn-246" value="p6" style="text;strokeColor=none;align=center;fillColor=none;html=1;verticalAlign=middle;whiteSpace=wrap;rounded=0;fontSize=10;" vertex="1" parent="1">
          <mxGeometry x="639.5" y="459" width="20" height="10" as="geometry" />
        </mxCell>
        <mxCell id="wcmJC4ws4vvmKw_JKWgn-247" value="" style="ellipse;whiteSpace=wrap;html=1;rotation=90;" vertex="1" parent="1">
          <mxGeometry x="50" y="643.75" width="172" height="62.5" as="geometry" />
        </mxCell>
        <mxCell id="wcmJC4ws4vvmKw_JKWgn-248" value="Advertisement" style="text;strokeColor=none;align=center;fillColor=none;html=1;verticalAlign=middle;whiteSpace=wrap;rounded=0;" vertex="1" parent="1">
          <mxGeometry x="106" y="765" width="60" height="30" as="geometry" />
        </mxCell>
        <mxCell id="wcmJC4ws4vvmKw_JKWgn-249" value="Product" style="text;strokeColor=none;align=center;fillColor=none;html=1;verticalAlign=middle;whiteSpace=wrap;rounded=0;" vertex="1" parent="1">
          <mxGeometry x="278.5" y="765" width="60" height="30" as="geometry" />
        </mxCell>
        <mxCell id="wcmJC4ws4vvmKw_JKWgn-250" value="advertises" style="text;strokeColor=none;align=center;fillColor=none;html=1;verticalAlign=middle;whiteSpace=wrap;rounded=0;" vertex="1" parent="1">
          <mxGeometry x="195" y="765" width="60" height="30" as="geometry" />
        </mxCell>
        <mxCell id="wcmJC4ws4vvmKw_JKWgn-251" value="" style="ellipse;whiteSpace=wrap;html=1;rotation=90;" vertex="1" parent="1">
          <mxGeometry x="129" y="644.75" width="186" height="62.5" as="geometry" />
        </mxCell>
        <mxCell id="wcmJC4ws4vvmKw_JKWgn-252" value="" style="ellipse;whiteSpace=wrap;html=1;rotation=90;" vertex="1" parent="1">
          <mxGeometry x="221" y="641.25" width="175" height="62.5" as="geometry" />
        </mxCell>
        <mxCell id="wcmJC4ws4vvmKw_JKWgn-253" style="rounded=0;orthogonalLoop=1;jettySize=auto;html=1;exitX=1;exitY=0.5;exitDx=0;exitDy=0;entryX=0;entryY=0.5;entryDx=0;entryDy=0;endArrow=none;endFill=0;" edge="1" parent="1" source="wcmJC4ws4vvmKw_JKWgn-254" target="wcmJC4ws4vvmKw_JKWgn-270">
          <mxGeometry relative="1" as="geometry" />
        </mxCell>
        <mxCell id="wcmJC4ws4vvmKw_JKWgn-254" value="" style="ellipse;whiteSpace=wrap;html=1;aspect=fixed;fillColor=#000000;" vertex="1" parent="1">
          <mxGeometry x="130.5" y="601.25" width="10" height="10" as="geometry" />
        </mxCell>
        <mxCell id="wcmJC4ws4vvmKw_JKWgn-255" style="rounded=0;orthogonalLoop=1;jettySize=auto;html=1;exitX=1;exitY=0.5;exitDx=0;exitDy=0;entryX=0;entryY=0.5;entryDx=0;entryDy=0;endArrow=none;endFill=0;" edge="1" parent="1" source="wcmJC4ws4vvmKw_JKWgn-257" target="wcmJC4ws4vvmKw_JKWgn-273">
          <mxGeometry relative="1" as="geometry" />
        </mxCell>
        <mxCell id="wcmJC4ws4vvmKw_JKWgn-257" value="" style="ellipse;whiteSpace=wrap;html=1;aspect=fixed;fillColor=#000000;" vertex="1" parent="1">
          <mxGeometry x="130.5" y="623.75" width="10" height="10" as="geometry" />
        </mxCell>
        <mxCell id="wcmJC4ws4vvmKw_JKWgn-259" style="rounded=0;orthogonalLoop=1;jettySize=auto;html=1;exitX=1;exitY=0.5;exitDx=0;exitDy=0;entryX=0;entryY=0.75;entryDx=0;entryDy=0;endArrow=none;endFill=0;" edge="1" parent="1" source="wcmJC4ws4vvmKw_JKWgn-260" target="wcmJC4ws4vvmKw_JKWgn-274">
          <mxGeometry relative="1" as="geometry" />
        </mxCell>
        <mxCell id="wcmJC4ws4vvmKw_JKWgn-260" value="" style="ellipse;whiteSpace=wrap;html=1;aspect=fixed;fillColor=#000000;" vertex="1" parent="1">
          <mxGeometry x="130.5" y="644.75" width="10" height="10" as="geometry" />
        </mxCell>
        <mxCell id="wcmJC4ws4vvmKw_JKWgn-261" style="rounded=0;orthogonalLoop=1;jettySize=auto;html=1;exitX=1;exitY=0.5;exitDx=0;exitDy=0;entryX=0;entryY=0.5;entryDx=0;entryDy=0;endArrow=none;endFill=0;" edge="1" parent="1" source="wcmJC4ws4vvmKw_JKWgn-302" target="wcmJC4ws4vvmKw_JKWgn-281">
          <mxGeometry relative="1" as="geometry" />
        </mxCell>
        <mxCell id="wcmJC4ws4vvmKw_JKWgn-305" style="rounded=0;orthogonalLoop=1;jettySize=auto;html=1;exitX=1;exitY=0.5;exitDx=0;exitDy=0;entryX=0;entryY=0.5;entryDx=0;entryDy=0;endArrow=none;endFill=0;" edge="1" parent="1" source="wcmJC4ws4vvmKw_JKWgn-262" target="wcmJC4ws4vvmKw_JKWgn-275">
          <mxGeometry relative="1" as="geometry" />
        </mxCell>
        <mxCell id="wcmJC4ws4vvmKw_JKWgn-262" value="" style="ellipse;whiteSpace=wrap;html=1;aspect=fixed;fillColor=#000000;" vertex="1" parent="1">
          <mxGeometry x="130.5" y="667.25" width="10" height="10" as="geometry" />
        </mxCell>
        <mxCell id="wcmJC4ws4vvmKw_JKWgn-263" value="&lt;p style=&quot;line-height: 0%;&quot;&gt;&lt;span style=&quot;font-size: 15px;&quot;&gt;.&lt;/span&gt;&lt;/p&gt;&lt;p style=&quot;line-height: 0%;&quot;&gt;&lt;span style=&quot;font-size: 15px;&quot;&gt;.&lt;/span&gt;&lt;/p&gt;&lt;p style=&quot;line-height: 0%;&quot;&gt;&lt;span style=&quot;font-size: 15px;&quot;&gt;.&lt;/span&gt;&lt;/p&gt;&lt;p&gt;&lt;/p&gt;" style="text;strokeColor=none;align=center;fillColor=none;html=1;verticalAlign=middle;whiteSpace=wrap;rounded=0;" vertex="1" parent="1">
          <mxGeometry x="121" y="725" width="30" height="15" as="geometry" />
        </mxCell>
        <mxCell id="wcmJC4ws4vvmKw_JKWgn-264" value="" style="ellipse;whiteSpace=wrap;html=1;aspect=fixed;fillColor=#000000;" vertex="1" parent="1">
          <mxGeometry x="303.5" y="601" width="10" height="10" as="geometry" />
        </mxCell>
        <mxCell id="wcmJC4ws4vvmKw_JKWgn-265" value="" style="ellipse;whiteSpace=wrap;html=1;aspect=fixed;fillColor=#000000;" vertex="1" parent="1">
          <mxGeometry x="303.5" y="623.5" width="11.25" height="11.25" as="geometry" />
        </mxCell>
        <mxCell id="wcmJC4ws4vvmKw_JKWgn-266" value="" style="ellipse;whiteSpace=wrap;html=1;aspect=fixed;fillColor=#000000;" vertex="1" parent="1">
          <mxGeometry x="303.5" y="643.5" width="10" height="10" as="geometry" />
        </mxCell>
        <mxCell id="wcmJC4ws4vvmKw_JKWgn-267" style="rounded=0;orthogonalLoop=1;jettySize=auto;html=1;exitX=0;exitY=0.5;exitDx=0;exitDy=0;entryX=1;entryY=0.5;entryDx=0;entryDy=0;endArrow=none;endFill=0;" edge="1" parent="1" source="wcmJC4ws4vvmKw_JKWgn-268" target="wcmJC4ws4vvmKw_JKWgn-275">
          <mxGeometry relative="1" as="geometry" />
        </mxCell>
        <mxCell id="wcmJC4ws4vvmKw_JKWgn-268" value="" style="ellipse;whiteSpace=wrap;html=1;aspect=fixed;fillColor=#000000;" vertex="1" parent="1">
          <mxGeometry x="303.5" y="666" width="10" height="10" as="geometry" />
        </mxCell>
        <mxCell id="wcmJC4ws4vvmKw_JKWgn-269" style="rounded=0;orthogonalLoop=1;jettySize=auto;html=1;exitX=1;exitY=0.5;exitDx=0;exitDy=0;entryX=0;entryY=0.5;entryDx=0;entryDy=0;endArrow=none;endFill=0;" edge="1" parent="1" source="wcmJC4ws4vvmKw_JKWgn-270" target="wcmJC4ws4vvmKw_JKWgn-264">
          <mxGeometry relative="1" as="geometry" />
        </mxCell>
        <mxCell id="wcmJC4ws4vvmKw_JKWgn-270" value="" style="whiteSpace=wrap;html=1;aspect=fixed;fillColor=#000000;" vertex="1" parent="1">
          <mxGeometry x="217.25" y="601" width="10" height="10" as="geometry" />
        </mxCell>
        <mxCell id="wcmJC4ws4vvmKw_JKWgn-271" style="rounded=0;orthogonalLoop=1;jettySize=auto;html=1;exitX=1;exitY=0.5;exitDx=0;exitDy=0;entryX=0.125;entryY=0.5;entryDx=0;entryDy=0;endArrow=none;endFill=0;entryPerimeter=0;" edge="1" parent="1" source="wcmJC4ws4vvmKw_JKWgn-274" target="wcmJC4ws4vvmKw_JKWgn-266">
          <mxGeometry relative="1" as="geometry" />
        </mxCell>
        <mxCell id="wcmJC4ws4vvmKw_JKWgn-272" style="rounded=0;orthogonalLoop=1;jettySize=auto;html=1;exitX=1;exitY=0.5;exitDx=0;exitDy=0;entryX=0;entryY=0.5;entryDx=0;entryDy=0;endArrow=none;endFill=0;" edge="1" parent="1" source="wcmJC4ws4vvmKw_JKWgn-273" target="wcmJC4ws4vvmKw_JKWgn-265">
          <mxGeometry relative="1" as="geometry" />
        </mxCell>
        <mxCell id="wcmJC4ws4vvmKw_JKWgn-273" value="" style="whiteSpace=wrap;html=1;aspect=fixed;fillColor=#000000;" vertex="1" parent="1">
          <mxGeometry x="217.25" y="623.5" width="10" height="10" as="geometry" />
        </mxCell>
        <mxCell id="wcmJC4ws4vvmKw_JKWgn-274" value="" style="whiteSpace=wrap;html=1;aspect=fixed;fillColor=#000000;" vertex="1" parent="1">
          <mxGeometry x="217.25" y="644.5" width="10" height="10" as="geometry" />
        </mxCell>
        <mxCell id="wcmJC4ws4vvmKw_JKWgn-275" value="" style="whiteSpace=wrap;html=1;aspect=fixed;fillColor=#000000;" vertex="1" parent="1">
          <mxGeometry x="217.25" y="666" width="10" height="10" as="geometry" />
        </mxCell>
        <mxCell id="wcmJC4ws4vvmKw_JKWgn-276" value="&lt;p style=&quot;line-height: 0%;&quot;&gt;&lt;span style=&quot;font-size: 15px;&quot;&gt;.&lt;/span&gt;&lt;/p&gt;&lt;p style=&quot;line-height: 0%;&quot;&gt;&lt;span style=&quot;font-size: 15px;&quot;&gt;.&lt;/span&gt;&lt;/p&gt;&lt;p style=&quot;line-height: 0%;&quot;&gt;&lt;span style=&quot;font-size: 15px;&quot;&gt;.&lt;/span&gt;&lt;/p&gt;&lt;p&gt;&lt;/p&gt;" style="text;strokeColor=none;align=center;fillColor=none;html=1;verticalAlign=middle;whiteSpace=wrap;rounded=0;" vertex="1" parent="1">
          <mxGeometry x="207.25" y="727" width="30" height="15" as="geometry" />
        </mxCell>
        <mxCell id="wcmJC4ws4vvmKw_JKWgn-277" value="&lt;p style=&quot;line-height: 0%;&quot;&gt;&lt;span style=&quot;font-size: 15px;&quot;&gt;.&lt;/span&gt;&lt;/p&gt;&lt;p style=&quot;line-height: 0%;&quot;&gt;&lt;span style=&quot;font-size: 15px;&quot;&gt;.&lt;/span&gt;&lt;/p&gt;&lt;p style=&quot;line-height: 0%;&quot;&gt;&lt;span style=&quot;font-size: 15px;&quot;&gt;.&lt;/span&gt;&lt;/p&gt;&lt;p&gt;&lt;/p&gt;" style="text;strokeColor=none;align=center;fillColor=none;html=1;verticalAlign=middle;whiteSpace=wrap;rounded=0;" vertex="1" parent="1">
          <mxGeometry x="293.5" y="724" width="30" height="15" as="geometry" />
        </mxCell>
        <mxCell id="wcmJC4ws4vvmKw_JKWgn-278" style="rounded=0;orthogonalLoop=1;jettySize=auto;html=1;exitX=1;exitY=0.5;exitDx=0;exitDy=0;entryX=0;entryY=0.5;entryDx=0;entryDy=0;endArrow=none;endFill=0;" edge="1" parent="1" source="wcmJC4ws4vvmKw_JKWgn-279" target="wcmJC4ws4vvmKw_JKWgn-296">
          <mxGeometry relative="1" as="geometry" />
        </mxCell>
        <mxCell id="wcmJC4ws4vvmKw_JKWgn-279" value="" style="whiteSpace=wrap;html=1;aspect=fixed;fillColor=#000000;" vertex="1" parent="1">
          <mxGeometry x="217.25" y="688.25" width="10" height="10" as="geometry" />
        </mxCell>
        <mxCell id="wcmJC4ws4vvmKw_JKWgn-280" style="rounded=0;orthogonalLoop=1;jettySize=auto;html=1;exitX=1;exitY=0.5;exitDx=0;exitDy=0;entryX=0;entryY=0.5;entryDx=0;entryDy=0;endArrow=none;endFill=0;" edge="1" parent="1" source="wcmJC4ws4vvmKw_JKWgn-281" target="wcmJC4ws4vvmKw_JKWgn-298">
          <mxGeometry relative="1" as="geometry" />
        </mxCell>
        <mxCell id="wcmJC4ws4vvmKw_JKWgn-281" value="" style="whiteSpace=wrap;html=1;aspect=fixed;fillColor=#000000;" vertex="1" parent="1">
          <mxGeometry x="217.25" y="709" width="10" height="10" as="geometry" />
        </mxCell>
        <mxCell id="wcmJC4ws4vvmKw_JKWgn-282" value="a1" style="text;strokeColor=none;align=center;fillColor=none;html=1;verticalAlign=middle;whiteSpace=wrap;rounded=0;fontSize=10;" vertex="1" parent="1">
          <mxGeometry x="112.5" y="601.75" width="19.75" height="10" as="geometry" />
        </mxCell>
        <mxCell id="wcmJC4ws4vvmKw_JKWgn-283" value="a2" style="text;strokeColor=none;align=center;fillColor=none;html=1;verticalAlign=middle;whiteSpace=wrap;rounded=0;fontSize=10;" vertex="1" parent="1">
          <mxGeometry x="110.5" y="625.25" width="20" height="10" as="geometry" />
        </mxCell>
        <mxCell id="wcmJC4ws4vvmKw_JKWgn-284" value="a3" style="text;strokeColor=none;align=center;fillColor=none;html=1;verticalAlign=middle;whiteSpace=wrap;rounded=0;fontSize=10;" vertex="1" parent="1">
          <mxGeometry x="110.5" y="644.5" width="20" height="10" as="geometry" />
        </mxCell>
        <mxCell id="wcmJC4ws4vvmKw_JKWgn-285" value="a4" style="text;strokeColor=none;align=center;fillColor=none;html=1;verticalAlign=middle;whiteSpace=wrap;rounded=0;fontSize=10;" vertex="1" parent="1">
          <mxGeometry x="109.5" y="667.25" width="20" height="10" as="geometry" />
        </mxCell>
        <mxCell id="wcmJC4ws4vvmKw_JKWgn-286" value="r1" style="text;strokeColor=none;align=center;fillColor=none;html=1;verticalAlign=middle;whiteSpace=wrap;rounded=0;fontSize=10;" vertex="1" parent="1">
          <mxGeometry x="212" y="591" width="20" height="10" as="geometry" />
        </mxCell>
        <mxCell id="wcmJC4ws4vvmKw_JKWgn-287" value="r2" style="text;strokeColor=none;align=center;fillColor=none;html=1;verticalAlign=middle;whiteSpace=wrap;rounded=0;fontSize=10;" vertex="1" parent="1">
          <mxGeometry x="212.25" y="613.5" width="20" height="10" as="geometry" />
        </mxCell>
        <mxCell id="wcmJC4ws4vvmKw_JKWgn-288" value="r3" style="text;strokeColor=none;align=center;fillColor=none;html=1;verticalAlign=middle;whiteSpace=wrap;rounded=0;fontSize=10;" vertex="1" parent="1">
          <mxGeometry x="212.25" y="634.75" width="20" height="10" as="geometry" />
        </mxCell>
        <mxCell id="wcmJC4ws4vvmKw_JKWgn-289" value="r4" style="text;strokeColor=none;align=center;fillColor=none;html=1;verticalAlign=middle;whiteSpace=wrap;rounded=0;fontSize=10;" vertex="1" parent="1">
          <mxGeometry x="212.25" y="656" width="20" height="10" as="geometry" />
        </mxCell>
        <mxCell id="wcmJC4ws4vvmKw_JKWgn-290" value="r5" style="text;strokeColor=none;align=center;fillColor=none;html=1;verticalAlign=middle;whiteSpace=wrap;rounded=0;fontSize=10;" vertex="1" parent="1">
          <mxGeometry x="212.25" y="678.25" width="20" height="10" as="geometry" />
        </mxCell>
        <mxCell id="wcmJC4ws4vvmKw_JKWgn-291" value="r6" style="text;strokeColor=none;align=center;fillColor=none;html=1;verticalAlign=middle;whiteSpace=wrap;rounded=0;fontSize=10;" vertex="1" parent="1">
          <mxGeometry x="212" y="699" width="20" height="10" as="geometry" />
        </mxCell>
        <mxCell id="wcmJC4ws4vvmKw_JKWgn-292" value="p1" style="text;strokeColor=none;align=center;fillColor=none;html=1;verticalAlign=middle;whiteSpace=wrap;rounded=0;fontSize=10;" vertex="1" parent="1">
          <mxGeometry x="313.5" y="601" width="20" height="10" as="geometry" />
        </mxCell>
        <mxCell id="wcmJC4ws4vvmKw_JKWgn-293" value="p2" style="text;strokeColor=none;align=center;fillColor=none;html=1;verticalAlign=middle;whiteSpace=wrap;rounded=0;fontSize=10;" vertex="1" parent="1">
          <mxGeometry x="313.5" y="623.5" width="20" height="10" as="geometry" />
        </mxCell>
        <mxCell id="wcmJC4ws4vvmKw_JKWgn-294" value="p3" style="text;strokeColor=none;align=center;fillColor=none;html=1;verticalAlign=middle;whiteSpace=wrap;rounded=0;fontSize=10;" vertex="1" parent="1">
          <mxGeometry x="313.5" y="644.5" width="20" height="10" as="geometry" />
        </mxCell>
        <mxCell id="wcmJC4ws4vvmKw_JKWgn-295" value="p4" style="text;strokeColor=none;align=center;fillColor=none;html=1;verticalAlign=middle;whiteSpace=wrap;rounded=0;fontSize=10;" vertex="1" parent="1">
          <mxGeometry x="313.5" y="668" width="20" height="10" as="geometry" />
        </mxCell>
        <mxCell id="wcmJC4ws4vvmKw_JKWgn-296" value="" style="ellipse;whiteSpace=wrap;html=1;aspect=fixed;fillColor=#000000;" vertex="1" parent="1">
          <mxGeometry x="303.5" y="686.25" width="10" height="10" as="geometry" />
        </mxCell>
        <mxCell id="wcmJC4ws4vvmKw_JKWgn-297" value="p5" style="text;strokeColor=none;align=center;fillColor=none;html=1;verticalAlign=middle;whiteSpace=wrap;rounded=0;fontSize=10;" vertex="1" parent="1">
          <mxGeometry x="313.5" y="688.25" width="20" height="10" as="geometry" />
        </mxCell>
        <mxCell id="wcmJC4ws4vvmKw_JKWgn-298" value="" style="ellipse;whiteSpace=wrap;html=1;aspect=fixed;fillColor=#000000;" vertex="1" parent="1">
          <mxGeometry x="303.5" y="706" width="10" height="10" as="geometry" />
        </mxCell>
        <mxCell id="wcmJC4ws4vvmKw_JKWgn-299" value="p6" style="text;strokeColor=none;align=center;fillColor=none;html=1;verticalAlign=middle;whiteSpace=wrap;rounded=0;fontSize=10;" vertex="1" parent="1">
          <mxGeometry x="313.5" y="708" width="20" height="10" as="geometry" />
        </mxCell>
        <mxCell id="wcmJC4ws4vvmKw_JKWgn-304" style="rounded=0;orthogonalLoop=1;jettySize=auto;html=1;exitX=1;exitY=0.5;exitDx=0;exitDy=0;entryX=0;entryY=0.5;entryDx=0;entryDy=0;endArrow=none;endFill=0;" edge="1" parent="1" source="wcmJC4ws4vvmKw_JKWgn-300" target="wcmJC4ws4vvmKw_JKWgn-279">
          <mxGeometry relative="1" as="geometry" />
        </mxCell>
        <mxCell id="wcmJC4ws4vvmKw_JKWgn-300" value="" style="ellipse;whiteSpace=wrap;html=1;aspect=fixed;fillColor=#000000;" vertex="1" parent="1">
          <mxGeometry x="130.5" y="686.25" width="10" height="10" as="geometry" />
        </mxCell>
        <mxCell id="wcmJC4ws4vvmKw_JKWgn-301" value="a5" style="text;strokeColor=none;align=center;fillColor=none;html=1;verticalAlign=middle;whiteSpace=wrap;rounded=0;fontSize=10;" vertex="1" parent="1">
          <mxGeometry x="109.5" y="687.25" width="20" height="10" as="geometry" />
        </mxCell>
        <mxCell id="wcmJC4ws4vvmKw_JKWgn-302" value="" style="ellipse;whiteSpace=wrap;html=1;aspect=fixed;fillColor=#000000;" vertex="1" parent="1">
          <mxGeometry x="130.5" y="705" width="10" height="10" as="geometry" />
        </mxCell>
        <mxCell id="wcmJC4ws4vvmKw_JKWgn-303" value="a6" style="text;strokeColor=none;align=center;fillColor=none;html=1;verticalAlign=middle;whiteSpace=wrap;rounded=0;fontSize=10;" vertex="1" parent="1">
          <mxGeometry x="109.5" y="706" width="20" height="10" as="geometry" />
        </mxCell>
        <mxCell id="wcmJC4ws4vvmKw_JKWgn-306" value="" style="ellipse;whiteSpace=wrap;html=1;rotation=90;" vertex="1" parent="1">
          <mxGeometry x="568.25" y="642.75" width="162.5" height="62.5" as="geometry" />
        </mxCell>
        <mxCell id="wcmJC4ws4vvmKw_JKWgn-307" value="Category" style="text;strokeColor=none;align=center;fillColor=none;html=1;verticalAlign=middle;whiteSpace=wrap;rounded=0;" vertex="1" parent="1">
          <mxGeometry x="619.5" y="763.25" width="60" height="30" as="geometry" />
        </mxCell>
        <mxCell id="wcmJC4ws4vvmKw_JKWgn-308" value="Product" style="text;strokeColor=none;align=center;fillColor=none;html=1;verticalAlign=middle;whiteSpace=wrap;rounded=0;" vertex="1" parent="1">
          <mxGeometry x="432" y="763.25" width="60" height="30" as="geometry" />
        </mxCell>
        <mxCell id="wcmJC4ws4vvmKw_JKWgn-309" value="belongs to" style="text;strokeColor=none;align=center;fillColor=none;html=1;verticalAlign=middle;whiteSpace=wrap;rounded=0;" vertex="1" parent="1">
          <mxGeometry x="533.5" y="763.25" width="60" height="30" as="geometry" />
        </mxCell>
        <mxCell id="wcmJC4ws4vvmKw_JKWgn-310" value="" style="ellipse;whiteSpace=wrap;html=1;rotation=90;" vertex="1" parent="1">
          <mxGeometry x="467.5" y="643" width="186" height="62.5" as="geometry" />
        </mxCell>
        <mxCell id="wcmJC4ws4vvmKw_JKWgn-311" value="" style="ellipse;whiteSpace=wrap;html=1;rotation=90;" vertex="1" parent="1">
          <mxGeometry x="374.5" y="639.5" width="175" height="62.5" as="geometry" />
        </mxCell>
        <mxCell id="wcmJC4ws4vvmKw_JKWgn-312" style="rounded=0;orthogonalLoop=1;jettySize=auto;html=1;exitX=1;exitY=0.5;exitDx=0;exitDy=0;entryX=0;entryY=0.5;entryDx=0;entryDy=0;endArrow=none;endFill=0;" edge="1" parent="1" source="wcmJC4ws4vvmKw_JKWgn-313" target="wcmJC4ws4vvmKw_JKWgn-329">
          <mxGeometry relative="1" as="geometry" />
        </mxCell>
        <mxCell id="wcmJC4ws4vvmKw_JKWgn-313" value="" style="ellipse;whiteSpace=wrap;html=1;aspect=fixed;fillColor=#000000;" vertex="1" parent="1">
          <mxGeometry x="644.5" y="620.25" width="10" height="10" as="geometry" />
        </mxCell>
        <mxCell id="wcmJC4ws4vvmKw_JKWgn-314" style="rounded=0;orthogonalLoop=1;jettySize=auto;html=1;exitX=1;exitY=0.5;exitDx=0;exitDy=0;entryX=0;entryY=0.5;entryDx=0;entryDy=0;endArrow=none;endFill=0;" edge="1" parent="1" source="wcmJC4ws4vvmKw_JKWgn-316" target="wcmJC4ws4vvmKw_JKWgn-332">
          <mxGeometry relative="1" as="geometry" />
        </mxCell>
        <mxCell id="wcmJC4ws4vvmKw_JKWgn-315" style="rounded=0;orthogonalLoop=1;jettySize=auto;html=1;exitX=1;exitY=0.5;exitDx=0;exitDy=0;entryX=0;entryY=0.5;entryDx=0;entryDy=0;endArrow=none;endFill=0;" edge="1" parent="1" source="wcmJC4ws4vvmKw_JKWgn-316" target="wcmJC4ws4vvmKw_JKWgn-338">
          <mxGeometry relative="1" as="geometry" />
        </mxCell>
        <mxCell id="wcmJC4ws4vvmKw_JKWgn-316" value="" style="ellipse;whiteSpace=wrap;html=1;aspect=fixed;fillColor=#000000;" vertex="1" parent="1">
          <mxGeometry x="644.5" y="642.75" width="10" height="10" as="geometry" />
        </mxCell>
        <mxCell id="wcmJC4ws4vvmKw_JKWgn-317" style="rounded=0;orthogonalLoop=1;jettySize=auto;html=1;exitX=1;exitY=0.5;exitDx=0;exitDy=0;entryX=0;entryY=0.5;entryDx=0;entryDy=0;endArrow=none;endFill=0;" edge="1" parent="1" source="wcmJC4ws4vvmKw_JKWgn-319" target="wcmJC4ws4vvmKw_JKWgn-334">
          <mxGeometry relative="1" as="geometry" />
        </mxCell>
        <mxCell id="wcmJC4ws4vvmKw_JKWgn-318" style="rounded=0;orthogonalLoop=1;jettySize=auto;html=1;exitX=1;exitY=0.5;exitDx=0;exitDy=0;entryX=0;entryY=0.75;entryDx=0;entryDy=0;endArrow=none;endFill=0;" edge="1" parent="1" source="wcmJC4ws4vvmKw_JKWgn-319" target="wcmJC4ws4vvmKw_JKWgn-333">
          <mxGeometry relative="1" as="geometry" />
        </mxCell>
        <mxCell id="wcmJC4ws4vvmKw_JKWgn-319" value="" style="ellipse;whiteSpace=wrap;html=1;aspect=fixed;fillColor=#000000;" vertex="1" parent="1">
          <mxGeometry x="644.5" y="663.75" width="10" height="10" as="geometry" />
        </mxCell>
        <mxCell id="wcmJC4ws4vvmKw_JKWgn-320" style="rounded=0;orthogonalLoop=1;jettySize=auto;html=1;exitX=1;exitY=0.5;exitDx=0;exitDy=0;entryX=0;entryY=0.5;entryDx=0;entryDy=0;endArrow=none;endFill=0;" edge="1" parent="1" source="wcmJC4ws4vvmKw_JKWgn-321" target="wcmJC4ws4vvmKw_JKWgn-340">
          <mxGeometry relative="1" as="geometry" />
        </mxCell>
        <mxCell id="wcmJC4ws4vvmKw_JKWgn-321" value="" style="ellipse;whiteSpace=wrap;html=1;aspect=fixed;fillColor=#000000;" vertex="1" parent="1">
          <mxGeometry x="644.5" y="686.25" width="10" height="10" as="geometry" />
        </mxCell>
        <mxCell id="wcmJC4ws4vvmKw_JKWgn-322" value="&lt;p style=&quot;line-height: 0%;&quot;&gt;&lt;span style=&quot;font-size: 15px;&quot;&gt;.&lt;/span&gt;&lt;/p&gt;&lt;p style=&quot;line-height: 0%;&quot;&gt;&lt;span style=&quot;font-size: 15px;&quot;&gt;.&lt;/span&gt;&lt;/p&gt;&lt;p style=&quot;line-height: 0%;&quot;&gt;&lt;span style=&quot;font-size: 15px;&quot;&gt;.&lt;/span&gt;&lt;/p&gt;&lt;p&gt;&lt;/p&gt;" style="text;strokeColor=none;align=center;fillColor=none;html=1;verticalAlign=middle;whiteSpace=wrap;rounded=0;" vertex="1" parent="1">
          <mxGeometry x="634.5" y="710.25" width="30" height="15" as="geometry" />
        </mxCell>
        <mxCell id="wcmJC4ws4vvmKw_JKWgn-323" value="" style="ellipse;whiteSpace=wrap;html=1;aspect=fixed;fillColor=#000000;" vertex="1" parent="1">
          <mxGeometry x="457" y="599.25" width="10" height="10" as="geometry" />
        </mxCell>
        <mxCell id="wcmJC4ws4vvmKw_JKWgn-324" value="" style="ellipse;whiteSpace=wrap;html=1;aspect=fixed;fillColor=#000000;" vertex="1" parent="1">
          <mxGeometry x="457" y="621.75" width="11.25" height="11.25" as="geometry" />
        </mxCell>
        <mxCell id="wcmJC4ws4vvmKw_JKWgn-325" value="" style="ellipse;whiteSpace=wrap;html=1;aspect=fixed;fillColor=#000000;" vertex="1" parent="1">
          <mxGeometry x="457" y="641.75" width="10" height="10" as="geometry" />
        </mxCell>
        <mxCell id="wcmJC4ws4vvmKw_JKWgn-326" style="rounded=0;orthogonalLoop=1;jettySize=auto;html=1;exitX=0;exitY=0.5;exitDx=0;exitDy=0;entryX=1;entryY=0.5;entryDx=0;entryDy=0;endArrow=none;endFill=0;" edge="1" parent="1" source="wcmJC4ws4vvmKw_JKWgn-327" target="wcmJC4ws4vvmKw_JKWgn-334">
          <mxGeometry relative="1" as="geometry" />
        </mxCell>
        <mxCell id="wcmJC4ws4vvmKw_JKWgn-327" value="" style="ellipse;whiteSpace=wrap;html=1;aspect=fixed;fillColor=#000000;" vertex="1" parent="1">
          <mxGeometry x="457" y="664.25" width="10" height="10" as="geometry" />
        </mxCell>
        <mxCell id="wcmJC4ws4vvmKw_JKWgn-328" style="rounded=0;orthogonalLoop=1;jettySize=auto;html=1;exitX=1;exitY=0.5;exitDx=0;exitDy=0;entryX=0;entryY=0.5;entryDx=0;entryDy=0;endArrow=none;endFill=0;" edge="1" parent="1" source="wcmJC4ws4vvmKw_JKWgn-329" target="wcmJC4ws4vvmKw_JKWgn-323">
          <mxGeometry relative="1" as="geometry" />
        </mxCell>
        <mxCell id="wcmJC4ws4vvmKw_JKWgn-329" value="" style="whiteSpace=wrap;html=1;aspect=fixed;fillColor=#000000;" vertex="1" parent="1">
          <mxGeometry x="555.75" y="599.25" width="10" height="10" as="geometry" />
        </mxCell>
        <mxCell id="wcmJC4ws4vvmKw_JKWgn-330" style="rounded=0;orthogonalLoop=1;jettySize=auto;html=1;exitX=1;exitY=0.5;exitDx=0;exitDy=0;entryX=0.125;entryY=0.5;entryDx=0;entryDy=0;endArrow=none;endFill=0;entryPerimeter=0;" edge="1" parent="1" source="wcmJC4ws4vvmKw_JKWgn-333" target="wcmJC4ws4vvmKw_JKWgn-325">
          <mxGeometry relative="1" as="geometry" />
        </mxCell>
        <mxCell id="wcmJC4ws4vvmKw_JKWgn-331" style="rounded=0;orthogonalLoop=1;jettySize=auto;html=1;exitX=1;exitY=0.5;exitDx=0;exitDy=0;entryX=0;entryY=0.5;entryDx=0;entryDy=0;endArrow=none;endFill=0;" edge="1" parent="1" source="wcmJC4ws4vvmKw_JKWgn-332" target="wcmJC4ws4vvmKw_JKWgn-324">
          <mxGeometry relative="1" as="geometry" />
        </mxCell>
        <mxCell id="wcmJC4ws4vvmKw_JKWgn-332" value="" style="whiteSpace=wrap;html=1;aspect=fixed;fillColor=#000000;" vertex="1" parent="1">
          <mxGeometry x="555.75" y="621.75" width="10" height="10" as="geometry" />
        </mxCell>
        <mxCell id="wcmJC4ws4vvmKw_JKWgn-333" value="" style="whiteSpace=wrap;html=1;aspect=fixed;fillColor=#000000;" vertex="1" parent="1">
          <mxGeometry x="555.75" y="642.75" width="10" height="10" as="geometry" />
        </mxCell>
        <mxCell id="wcmJC4ws4vvmKw_JKWgn-334" value="" style="whiteSpace=wrap;html=1;aspect=fixed;fillColor=#000000;" vertex="1" parent="1">
          <mxGeometry x="555.75" y="664.25" width="10" height="10" as="geometry" />
        </mxCell>
        <mxCell id="wcmJC4ws4vvmKw_JKWgn-335" value="&lt;p style=&quot;line-height: 0%;&quot;&gt;&lt;span style=&quot;font-size: 15px;&quot;&gt;.&lt;/span&gt;&lt;/p&gt;&lt;p style=&quot;line-height: 0%;&quot;&gt;&lt;span style=&quot;font-size: 15px;&quot;&gt;.&lt;/span&gt;&lt;/p&gt;&lt;p style=&quot;line-height: 0%;&quot;&gt;&lt;span style=&quot;font-size: 15px;&quot;&gt;.&lt;/span&gt;&lt;/p&gt;&lt;p&gt;&lt;/p&gt;" style="text;strokeColor=none;align=center;fillColor=none;html=1;verticalAlign=middle;whiteSpace=wrap;rounded=0;" vertex="1" parent="1">
          <mxGeometry x="545.75" y="725.25" width="30" height="15" as="geometry" />
        </mxCell>
        <mxCell id="wcmJC4ws4vvmKw_JKWgn-336" value="&lt;p style=&quot;line-height: 0%;&quot;&gt;&lt;span style=&quot;font-size: 15px;&quot;&gt;.&lt;/span&gt;&lt;/p&gt;&lt;p style=&quot;line-height: 0%;&quot;&gt;&lt;span style=&quot;font-size: 15px;&quot;&gt;.&lt;/span&gt;&lt;/p&gt;&lt;p style=&quot;line-height: 0%;&quot;&gt;&lt;span style=&quot;font-size: 15px;&quot;&gt;.&lt;/span&gt;&lt;/p&gt;&lt;p&gt;&lt;/p&gt;" style="text;strokeColor=none;align=center;fillColor=none;html=1;verticalAlign=middle;whiteSpace=wrap;rounded=0;" vertex="1" parent="1">
          <mxGeometry x="447" y="722.25" width="30" height="15" as="geometry" />
        </mxCell>
        <mxCell id="wcmJC4ws4vvmKw_JKWgn-337" style="rounded=0;orthogonalLoop=1;jettySize=auto;html=1;exitX=1;exitY=0.5;exitDx=0;exitDy=0;entryX=0;entryY=0.5;entryDx=0;entryDy=0;endArrow=none;endFill=0;" edge="1" parent="1" source="wcmJC4ws4vvmKw_JKWgn-338" target="wcmJC4ws4vvmKw_JKWgn-355">
          <mxGeometry relative="1" as="geometry" />
        </mxCell>
        <mxCell id="wcmJC4ws4vvmKw_JKWgn-338" value="" style="whiteSpace=wrap;html=1;aspect=fixed;fillColor=#000000;" vertex="1" parent="1">
          <mxGeometry x="555.75" y="686.5" width="10" height="10" as="geometry" />
        </mxCell>
        <mxCell id="wcmJC4ws4vvmKw_JKWgn-339" style="rounded=0;orthogonalLoop=1;jettySize=auto;html=1;exitX=1;exitY=0.5;exitDx=0;exitDy=0;entryX=0;entryY=0.5;entryDx=0;entryDy=0;endArrow=none;endFill=0;" edge="1" parent="1" source="wcmJC4ws4vvmKw_JKWgn-340" target="wcmJC4ws4vvmKw_JKWgn-357">
          <mxGeometry relative="1" as="geometry" />
        </mxCell>
        <mxCell id="wcmJC4ws4vvmKw_JKWgn-340" value="" style="whiteSpace=wrap;html=1;aspect=fixed;fillColor=#000000;" vertex="1" parent="1">
          <mxGeometry x="555.75" y="707.25" width="10" height="10" as="geometry" />
        </mxCell>
        <mxCell id="wcmJC4ws4vvmKw_JKWgn-341" value="ca1" style="text;strokeColor=none;align=center;fillColor=none;html=1;verticalAlign=middle;whiteSpace=wrap;rounded=0;fontSize=10;" vertex="1" parent="1">
          <mxGeometry x="653.5" y="620.25" width="20" height="10" as="geometry" />
        </mxCell>
        <mxCell id="wcmJC4ws4vvmKw_JKWgn-342" value="ca2" style="text;strokeColor=none;align=center;fillColor=none;html=1;verticalAlign=middle;whiteSpace=wrap;rounded=0;fontSize=10;" vertex="1" parent="1">
          <mxGeometry x="653.5" y="642.75" width="20" height="10" as="geometry" />
        </mxCell>
        <mxCell id="wcmJC4ws4vvmKw_JKWgn-343" value="ca3" style="text;strokeColor=none;align=center;fillColor=none;html=1;verticalAlign=middle;whiteSpace=wrap;rounded=0;fontSize=10;" vertex="1" parent="1">
          <mxGeometry x="653.5" y="665" width="20" height="10" as="geometry" />
        </mxCell>
        <mxCell id="wcmJC4ws4vvmKw_JKWgn-344" value="ca4" style="text;strokeColor=none;align=center;fillColor=none;html=1;verticalAlign=middle;whiteSpace=wrap;rounded=0;fontSize=10;" vertex="1" parent="1">
          <mxGeometry x="654.5" y="685.75" width="20" height="10" as="geometry" />
        </mxCell>
        <mxCell id="wcmJC4ws4vvmKw_JKWgn-345" value="r1" style="text;strokeColor=none;align=center;fillColor=none;html=1;verticalAlign=middle;whiteSpace=wrap;rounded=0;fontSize=10;" vertex="1" parent="1">
          <mxGeometry x="550.5" y="589.25" width="20" height="10" as="geometry" />
        </mxCell>
        <mxCell id="wcmJC4ws4vvmKw_JKWgn-346" value="r2" style="text;strokeColor=none;align=center;fillColor=none;html=1;verticalAlign=middle;whiteSpace=wrap;rounded=0;fontSize=10;" vertex="1" parent="1">
          <mxGeometry x="550.75" y="611.75" width="20" height="10" as="geometry" />
        </mxCell>
        <mxCell id="wcmJC4ws4vvmKw_JKWgn-347" value="r3" style="text;strokeColor=none;align=center;fillColor=none;html=1;verticalAlign=middle;whiteSpace=wrap;rounded=0;fontSize=10;" vertex="1" parent="1">
          <mxGeometry x="550.75" y="633" width="20" height="10" as="geometry" />
        </mxCell>
        <mxCell id="wcmJC4ws4vvmKw_JKWgn-348" value="r4" style="text;strokeColor=none;align=center;fillColor=none;html=1;verticalAlign=middle;whiteSpace=wrap;rounded=0;fontSize=10;" vertex="1" parent="1">
          <mxGeometry x="550.75" y="654.25" width="20" height="10" as="geometry" />
        </mxCell>
        <mxCell id="wcmJC4ws4vvmKw_JKWgn-349" value="r5" style="text;strokeColor=none;align=center;fillColor=none;html=1;verticalAlign=middle;whiteSpace=wrap;rounded=0;fontSize=10;" vertex="1" parent="1">
          <mxGeometry x="550.75" y="676.5" width="20" height="10" as="geometry" />
        </mxCell>
        <mxCell id="wcmJC4ws4vvmKw_JKWgn-350" value="r6" style="text;strokeColor=none;align=center;fillColor=none;html=1;verticalAlign=middle;whiteSpace=wrap;rounded=0;fontSize=10;" vertex="1" parent="1">
          <mxGeometry x="550.5" y="697.25" width="20" height="10" as="geometry" />
        </mxCell>
        <mxCell id="wcmJC4ws4vvmKw_JKWgn-351" value="p1" style="text;strokeColor=none;align=center;fillColor=none;html=1;verticalAlign=middle;whiteSpace=wrap;rounded=0;fontSize=10;" vertex="1" parent="1">
          <mxGeometry x="439" y="599" width="20" height="10" as="geometry" />
        </mxCell>
        <mxCell id="wcmJC4ws4vvmKw_JKWgn-352" value="p2" style="text;strokeColor=none;align=center;fillColor=none;html=1;verticalAlign=middle;whiteSpace=wrap;rounded=0;fontSize=10;" vertex="1" parent="1">
          <mxGeometry x="438" y="621.5" width="20" height="10" as="geometry" />
        </mxCell>
        <mxCell id="wcmJC4ws4vvmKw_JKWgn-353" value="p3" style="text;strokeColor=none;align=center;fillColor=none;html=1;verticalAlign=middle;whiteSpace=wrap;rounded=0;fontSize=10;" vertex="1" parent="1">
          <mxGeometry x="438" y="642.5" width="20" height="10" as="geometry" />
        </mxCell>
        <mxCell id="wcmJC4ws4vvmKw_JKWgn-354" value="p4" style="text;strokeColor=none;align=center;fillColor=none;html=1;verticalAlign=middle;whiteSpace=wrap;rounded=0;fontSize=10;" vertex="1" parent="1">
          <mxGeometry x="437" y="665" width="20" height="10" as="geometry" />
        </mxCell>
        <mxCell id="wcmJC4ws4vvmKw_JKWgn-355" value="" style="ellipse;whiteSpace=wrap;html=1;aspect=fixed;fillColor=#000000;" vertex="1" parent="1">
          <mxGeometry x="457" y="684.5" width="10" height="10" as="geometry" />
        </mxCell>
        <mxCell id="wcmJC4ws4vvmKw_JKWgn-356" value="p5" style="text;strokeColor=none;align=center;fillColor=none;html=1;verticalAlign=middle;whiteSpace=wrap;rounded=0;fontSize=10;" vertex="1" parent="1">
          <mxGeometry x="437" y="684.25" width="20" height="10" as="geometry" />
        </mxCell>
        <mxCell id="wcmJC4ws4vvmKw_JKWgn-357" value="" style="ellipse;whiteSpace=wrap;html=1;aspect=fixed;fillColor=#000000;" vertex="1" parent="1">
          <mxGeometry x="457" y="704.25" width="10" height="10" as="geometry" />
        </mxCell>
        <mxCell id="wcmJC4ws4vvmKw_JKWgn-358" value="p6" style="text;strokeColor=none;align=center;fillColor=none;html=1;verticalAlign=middle;whiteSpace=wrap;rounded=0;fontSize=10;" vertex="1" parent="1">
          <mxGeometry x="437" y="704" width="20" height="10" as="geometry" />
        </mxCell>
        <mxCell id="wcmJC4ws4vvmKw_JKWgn-360" value="" style="ellipse;whiteSpace=wrap;html=1;rotation=90;" vertex="1" parent="1">
          <mxGeometry x="55.5" y="393" width="172" height="62.5" as="geometry" />
        </mxCell>
        <mxCell id="wcmJC4ws4vvmKw_JKWgn-361" value="transaction" style="text;strokeColor=none;align=center;fillColor=none;html=1;verticalAlign=middle;whiteSpace=wrap;rounded=0;" vertex="1" parent="1">
          <mxGeometry x="111.5" y="514.25" width="60" height="30" as="geometry" />
        </mxCell>
        <mxCell id="wcmJC4ws4vvmKw_JKWgn-362" value="delivery" style="text;strokeColor=none;align=center;fillColor=none;html=1;verticalAlign=middle;whiteSpace=wrap;rounded=0;" vertex="1" parent="1">
          <mxGeometry x="284" y="514.25" width="60" height="30" as="geometry" />
        </mxCell>
        <mxCell id="wcmJC4ws4vvmKw_JKWgn-363" value="initiates" style="text;strokeColor=none;align=center;fillColor=none;html=1;verticalAlign=middle;whiteSpace=wrap;rounded=0;" vertex="1" parent="1">
          <mxGeometry x="200.5" y="514.25" width="60" height="30" as="geometry" />
        </mxCell>
        <mxCell id="wcmJC4ws4vvmKw_JKWgn-364" value="" style="ellipse;whiteSpace=wrap;html=1;rotation=90;" vertex="1" parent="1">
          <mxGeometry x="134.5" y="394" width="186" height="62.5" as="geometry" />
        </mxCell>
        <mxCell id="wcmJC4ws4vvmKw_JKWgn-365" value="" style="ellipse;whiteSpace=wrap;html=1;rotation=90;" vertex="1" parent="1">
          <mxGeometry x="226.5" y="390.5" width="175" height="62.5" as="geometry" />
        </mxCell>
        <mxCell id="wcmJC4ws4vvmKw_JKWgn-366" style="rounded=0;orthogonalLoop=1;jettySize=auto;html=1;exitX=1;exitY=0.5;exitDx=0;exitDy=0;entryX=0;entryY=0.5;entryDx=0;entryDy=0;endArrow=none;endFill=0;" edge="1" parent="1" source="wcmJC4ws4vvmKw_JKWgn-367" target="wcmJC4ws4vvmKw_JKWgn-382">
          <mxGeometry relative="1" as="geometry" />
        </mxCell>
        <mxCell id="wcmJC4ws4vvmKw_JKWgn-367" value="" style="ellipse;whiteSpace=wrap;html=1;aspect=fixed;fillColor=#000000;" vertex="1" parent="1">
          <mxGeometry x="136" y="350.5" width="10" height="10" as="geometry" />
        </mxCell>
        <mxCell id="wcmJC4ws4vvmKw_JKWgn-368" style="rounded=0;orthogonalLoop=1;jettySize=auto;html=1;exitX=1;exitY=0.5;exitDx=0;exitDy=0;entryX=0;entryY=0.5;entryDx=0;entryDy=0;endArrow=none;endFill=0;" edge="1" parent="1" source="wcmJC4ws4vvmKw_JKWgn-369" target="wcmJC4ws4vvmKw_JKWgn-385">
          <mxGeometry relative="1" as="geometry" />
        </mxCell>
        <mxCell id="wcmJC4ws4vvmKw_JKWgn-369" value="" style="ellipse;whiteSpace=wrap;html=1;aspect=fixed;fillColor=#000000;" vertex="1" parent="1">
          <mxGeometry x="136" y="373" width="10" height="10" as="geometry" />
        </mxCell>
        <mxCell id="wcmJC4ws4vvmKw_JKWgn-370" style="rounded=0;orthogonalLoop=1;jettySize=auto;html=1;exitX=1;exitY=0.5;exitDx=0;exitDy=0;entryX=0;entryY=0.75;entryDx=0;entryDy=0;endArrow=none;endFill=0;" edge="1" parent="1" source="wcmJC4ws4vvmKw_JKWgn-371" target="wcmJC4ws4vvmKw_JKWgn-386">
          <mxGeometry relative="1" as="geometry" />
        </mxCell>
        <mxCell id="wcmJC4ws4vvmKw_JKWgn-371" value="" style="ellipse;whiteSpace=wrap;html=1;aspect=fixed;fillColor=#000000;" vertex="1" parent="1">
          <mxGeometry x="136" y="394" width="10" height="10" as="geometry" />
        </mxCell>
        <mxCell id="wcmJC4ws4vvmKw_JKWgn-372" style="rounded=0;orthogonalLoop=1;jettySize=auto;html=1;exitX=1;exitY=0.5;exitDx=0;exitDy=0;entryX=0;entryY=0.5;entryDx=0;entryDy=0;endArrow=none;endFill=0;" edge="1" parent="1" source="wcmJC4ws4vvmKw_JKWgn-415" target="wcmJC4ws4vvmKw_JKWgn-393">
          <mxGeometry relative="1" as="geometry" />
        </mxCell>
        <mxCell id="wcmJC4ws4vvmKw_JKWgn-373" style="rounded=0;orthogonalLoop=1;jettySize=auto;html=1;exitX=1;exitY=0.5;exitDx=0;exitDy=0;entryX=0;entryY=0.5;entryDx=0;entryDy=0;endArrow=none;endFill=0;" edge="1" parent="1" source="wcmJC4ws4vvmKw_JKWgn-374" target="wcmJC4ws4vvmKw_JKWgn-387">
          <mxGeometry relative="1" as="geometry" />
        </mxCell>
        <mxCell id="wcmJC4ws4vvmKw_JKWgn-374" value="" style="ellipse;whiteSpace=wrap;html=1;aspect=fixed;fillColor=#000000;" vertex="1" parent="1">
          <mxGeometry x="136" y="416.5" width="10" height="10" as="geometry" />
        </mxCell>
        <mxCell id="wcmJC4ws4vvmKw_JKWgn-375" value="&lt;p style=&quot;line-height: 0%;&quot;&gt;&lt;span style=&quot;font-size: 15px;&quot;&gt;.&lt;/span&gt;&lt;/p&gt;&lt;p style=&quot;line-height: 0%;&quot;&gt;&lt;span style=&quot;font-size: 15px;&quot;&gt;.&lt;/span&gt;&lt;/p&gt;&lt;p style=&quot;line-height: 0%;&quot;&gt;&lt;span style=&quot;font-size: 15px;&quot;&gt;.&lt;/span&gt;&lt;/p&gt;&lt;p&gt;&lt;/p&gt;" style="text;strokeColor=none;align=center;fillColor=none;html=1;verticalAlign=middle;whiteSpace=wrap;rounded=0;" vertex="1" parent="1">
          <mxGeometry x="126.5" y="474.25" width="30" height="15" as="geometry" />
        </mxCell>
        <mxCell id="wcmJC4ws4vvmKw_JKWgn-376" value="" style="ellipse;whiteSpace=wrap;html=1;aspect=fixed;fillColor=#000000;" vertex="1" parent="1">
          <mxGeometry x="309" y="350.25" width="10" height="10" as="geometry" />
        </mxCell>
        <mxCell id="wcmJC4ws4vvmKw_JKWgn-377" value="" style="ellipse;whiteSpace=wrap;html=1;aspect=fixed;fillColor=#000000;" vertex="1" parent="1">
          <mxGeometry x="309" y="372.75" width="11.25" height="11.25" as="geometry" />
        </mxCell>
        <mxCell id="wcmJC4ws4vvmKw_JKWgn-378" value="" style="ellipse;whiteSpace=wrap;html=1;aspect=fixed;fillColor=#000000;" vertex="1" parent="1">
          <mxGeometry x="309" y="392.75" width="10" height="10" as="geometry" />
        </mxCell>
        <mxCell id="wcmJC4ws4vvmKw_JKWgn-379" style="rounded=0;orthogonalLoop=1;jettySize=auto;html=1;exitX=0;exitY=0.5;exitDx=0;exitDy=0;entryX=1;entryY=0.5;entryDx=0;entryDy=0;endArrow=none;endFill=0;" edge="1" parent="1" source="wcmJC4ws4vvmKw_JKWgn-380" target="wcmJC4ws4vvmKw_JKWgn-387">
          <mxGeometry relative="1" as="geometry" />
        </mxCell>
        <mxCell id="wcmJC4ws4vvmKw_JKWgn-380" value="" style="ellipse;whiteSpace=wrap;html=1;aspect=fixed;fillColor=#000000;" vertex="1" parent="1">
          <mxGeometry x="309" y="415.25" width="10" height="10" as="geometry" />
        </mxCell>
        <mxCell id="wcmJC4ws4vvmKw_JKWgn-381" style="rounded=0;orthogonalLoop=1;jettySize=auto;html=1;exitX=1;exitY=0.5;exitDx=0;exitDy=0;entryX=0;entryY=0.5;entryDx=0;entryDy=0;endArrow=none;endFill=0;" edge="1" parent="1" source="wcmJC4ws4vvmKw_JKWgn-382" target="wcmJC4ws4vvmKw_JKWgn-376">
          <mxGeometry relative="1" as="geometry" />
        </mxCell>
        <mxCell id="wcmJC4ws4vvmKw_JKWgn-382" value="" style="whiteSpace=wrap;html=1;aspect=fixed;fillColor=#000000;" vertex="1" parent="1">
          <mxGeometry x="222.75" y="350.25" width="10" height="10" as="geometry" />
        </mxCell>
        <mxCell id="wcmJC4ws4vvmKw_JKWgn-383" style="rounded=0;orthogonalLoop=1;jettySize=auto;html=1;exitX=1;exitY=0.5;exitDx=0;exitDy=0;entryX=0.125;entryY=0.5;entryDx=0;entryDy=0;endArrow=none;endFill=0;entryPerimeter=0;" edge="1" parent="1" source="wcmJC4ws4vvmKw_JKWgn-386" target="wcmJC4ws4vvmKw_JKWgn-378">
          <mxGeometry relative="1" as="geometry" />
        </mxCell>
        <mxCell id="wcmJC4ws4vvmKw_JKWgn-384" style="rounded=0;orthogonalLoop=1;jettySize=auto;html=1;exitX=1;exitY=0.5;exitDx=0;exitDy=0;entryX=0;entryY=0.5;entryDx=0;entryDy=0;endArrow=none;endFill=0;" edge="1" parent="1" source="wcmJC4ws4vvmKw_JKWgn-385" target="wcmJC4ws4vvmKw_JKWgn-377">
          <mxGeometry relative="1" as="geometry" />
        </mxCell>
        <mxCell id="wcmJC4ws4vvmKw_JKWgn-385" value="" style="whiteSpace=wrap;html=1;aspect=fixed;fillColor=#000000;" vertex="1" parent="1">
          <mxGeometry x="222.75" y="372.75" width="10" height="10" as="geometry" />
        </mxCell>
        <mxCell id="wcmJC4ws4vvmKw_JKWgn-386" value="" style="whiteSpace=wrap;html=1;aspect=fixed;fillColor=#000000;" vertex="1" parent="1">
          <mxGeometry x="222.75" y="393.75" width="10" height="10" as="geometry" />
        </mxCell>
        <mxCell id="wcmJC4ws4vvmKw_JKWgn-387" value="" style="whiteSpace=wrap;html=1;aspect=fixed;fillColor=#000000;" vertex="1" parent="1">
          <mxGeometry x="222.75" y="415.25" width="10" height="10" as="geometry" />
        </mxCell>
        <mxCell id="wcmJC4ws4vvmKw_JKWgn-388" value="&lt;p style=&quot;line-height: 0%;&quot;&gt;&lt;span style=&quot;font-size: 15px;&quot;&gt;.&lt;/span&gt;&lt;/p&gt;&lt;p style=&quot;line-height: 0%;&quot;&gt;&lt;span style=&quot;font-size: 15px;&quot;&gt;.&lt;/span&gt;&lt;/p&gt;&lt;p style=&quot;line-height: 0%;&quot;&gt;&lt;span style=&quot;font-size: 15px;&quot;&gt;.&lt;/span&gt;&lt;/p&gt;&lt;p&gt;&lt;/p&gt;" style="text;strokeColor=none;align=center;fillColor=none;html=1;verticalAlign=middle;whiteSpace=wrap;rounded=0;" vertex="1" parent="1">
          <mxGeometry x="212.75" y="476.25" width="30" height="15" as="geometry" />
        </mxCell>
        <mxCell id="wcmJC4ws4vvmKw_JKWgn-389" value="&lt;p style=&quot;line-height: 0%;&quot;&gt;&lt;span style=&quot;font-size: 15px;&quot;&gt;.&lt;/span&gt;&lt;/p&gt;&lt;p style=&quot;line-height: 0%;&quot;&gt;&lt;span style=&quot;font-size: 15px;&quot;&gt;.&lt;/span&gt;&lt;/p&gt;&lt;p style=&quot;line-height: 0%;&quot;&gt;&lt;span style=&quot;font-size: 15px;&quot;&gt;.&lt;/span&gt;&lt;/p&gt;&lt;p&gt;&lt;/p&gt;" style="text;strokeColor=none;align=center;fillColor=none;html=1;verticalAlign=middle;whiteSpace=wrap;rounded=0;" vertex="1" parent="1">
          <mxGeometry x="299" y="473.25" width="30" height="15" as="geometry" />
        </mxCell>
        <mxCell id="wcmJC4ws4vvmKw_JKWgn-390" style="rounded=0;orthogonalLoop=1;jettySize=auto;html=1;exitX=1;exitY=0.5;exitDx=0;exitDy=0;entryX=0;entryY=0.5;entryDx=0;entryDy=0;endArrow=none;endFill=0;" edge="1" parent="1" source="wcmJC4ws4vvmKw_JKWgn-391" target="wcmJC4ws4vvmKw_JKWgn-408">
          <mxGeometry relative="1" as="geometry" />
        </mxCell>
        <mxCell id="wcmJC4ws4vvmKw_JKWgn-391" value="" style="whiteSpace=wrap;html=1;aspect=fixed;fillColor=#000000;" vertex="1" parent="1">
          <mxGeometry x="222.75" y="437.5" width="10" height="10" as="geometry" />
        </mxCell>
        <mxCell id="wcmJC4ws4vvmKw_JKWgn-392" style="rounded=0;orthogonalLoop=1;jettySize=auto;html=1;exitX=1;exitY=0.5;exitDx=0;exitDy=0;entryX=0;entryY=0.5;entryDx=0;entryDy=0;endArrow=none;endFill=0;" edge="1" parent="1" source="wcmJC4ws4vvmKw_JKWgn-393" target="wcmJC4ws4vvmKw_JKWgn-410">
          <mxGeometry relative="1" as="geometry" />
        </mxCell>
        <mxCell id="wcmJC4ws4vvmKw_JKWgn-393" value="" style="whiteSpace=wrap;html=1;aspect=fixed;fillColor=#000000;" vertex="1" parent="1">
          <mxGeometry x="222.75" y="458.25" width="10" height="10" as="geometry" />
        </mxCell>
        <mxCell id="wcmJC4ws4vvmKw_JKWgn-394" value="t1" style="text;strokeColor=none;align=center;fillColor=none;html=1;verticalAlign=middle;whiteSpace=wrap;rounded=0;fontSize=10;" vertex="1" parent="1">
          <mxGeometry x="120" y="351" width="19.75" height="10" as="geometry" />
        </mxCell>
        <mxCell id="wcmJC4ws4vvmKw_JKWgn-395" value="t2" style="text;strokeColor=none;align=center;fillColor=none;html=1;verticalAlign=middle;whiteSpace=wrap;rounded=0;fontSize=10;" vertex="1" parent="1">
          <mxGeometry x="118" y="374.5" width="20" height="10" as="geometry" />
        </mxCell>
        <mxCell id="wcmJC4ws4vvmKw_JKWgn-396" value="t3" style="text;strokeColor=none;align=center;fillColor=none;html=1;verticalAlign=middle;whiteSpace=wrap;rounded=0;fontSize=10;" vertex="1" parent="1">
          <mxGeometry x="118" y="394.75" width="20" height="10" as="geometry" />
        </mxCell>
        <mxCell id="wcmJC4ws4vvmKw_JKWgn-397" value="t4" style="text;strokeColor=none;align=center;fillColor=none;html=1;verticalAlign=middle;whiteSpace=wrap;rounded=0;fontSize=10;" vertex="1" parent="1">
          <mxGeometry x="117" y="416.5" width="20" height="10" as="geometry" />
        </mxCell>
        <mxCell id="wcmJC4ws4vvmKw_JKWgn-398" value="r1" style="text;strokeColor=none;align=center;fillColor=none;html=1;verticalAlign=middle;whiteSpace=wrap;rounded=0;fontSize=10;" vertex="1" parent="1">
          <mxGeometry x="217.5" y="340.25" width="20" height="10" as="geometry" />
        </mxCell>
        <mxCell id="wcmJC4ws4vvmKw_JKWgn-399" value="r2" style="text;strokeColor=none;align=center;fillColor=none;html=1;verticalAlign=middle;whiteSpace=wrap;rounded=0;fontSize=10;" vertex="1" parent="1">
          <mxGeometry x="217.75" y="362.75" width="20" height="10" as="geometry" />
        </mxCell>
        <mxCell id="wcmJC4ws4vvmKw_JKWgn-400" value="r3" style="text;strokeColor=none;align=center;fillColor=none;html=1;verticalAlign=middle;whiteSpace=wrap;rounded=0;fontSize=10;" vertex="1" parent="1">
          <mxGeometry x="217.75" y="384" width="20" height="10" as="geometry" />
        </mxCell>
        <mxCell id="wcmJC4ws4vvmKw_JKWgn-401" value="r4" style="text;strokeColor=none;align=center;fillColor=none;html=1;verticalAlign=middle;whiteSpace=wrap;rounded=0;fontSize=10;" vertex="1" parent="1">
          <mxGeometry x="217.75" y="405.25" width="20" height="10" as="geometry" />
        </mxCell>
        <mxCell id="wcmJC4ws4vvmKw_JKWgn-402" value="r5" style="text;strokeColor=none;align=center;fillColor=none;html=1;verticalAlign=middle;whiteSpace=wrap;rounded=0;fontSize=10;" vertex="1" parent="1">
          <mxGeometry x="217.75" y="427.5" width="20" height="10" as="geometry" />
        </mxCell>
        <mxCell id="wcmJC4ws4vvmKw_JKWgn-403" value="r6" style="text;strokeColor=none;align=center;fillColor=none;html=1;verticalAlign=middle;whiteSpace=wrap;rounded=0;fontSize=10;" vertex="1" parent="1">
          <mxGeometry x="217.5" y="448.25" width="20" height="10" as="geometry" />
        </mxCell>
        <mxCell id="wcmJC4ws4vvmKw_JKWgn-404" value="d1" style="text;strokeColor=none;align=center;fillColor=none;html=1;verticalAlign=middle;whiteSpace=wrap;rounded=0;fontSize=10;" vertex="1" parent="1">
          <mxGeometry x="319" y="350.25" width="20" height="10" as="geometry" />
        </mxCell>
        <mxCell id="wcmJC4ws4vvmKw_JKWgn-405" value="d2" style="text;strokeColor=none;align=center;fillColor=none;html=1;verticalAlign=middle;whiteSpace=wrap;rounded=0;fontSize=10;" vertex="1" parent="1">
          <mxGeometry x="319" y="372.75" width="20" height="10" as="geometry" />
        </mxCell>
        <mxCell id="wcmJC4ws4vvmKw_JKWgn-406" value="d3" style="text;strokeColor=none;align=center;fillColor=none;html=1;verticalAlign=middle;whiteSpace=wrap;rounded=0;fontSize=10;" vertex="1" parent="1">
          <mxGeometry x="319" y="393.75" width="20" height="10" as="geometry" />
        </mxCell>
        <mxCell id="wcmJC4ws4vvmKw_JKWgn-407" value="d4" style="text;strokeColor=none;align=center;fillColor=none;html=1;verticalAlign=middle;whiteSpace=wrap;rounded=0;fontSize=10;" vertex="1" parent="1">
          <mxGeometry x="319" y="417.25" width="20" height="10" as="geometry" />
        </mxCell>
        <mxCell id="wcmJC4ws4vvmKw_JKWgn-408" value="" style="ellipse;whiteSpace=wrap;html=1;aspect=fixed;fillColor=#000000;" vertex="1" parent="1">
          <mxGeometry x="309" y="435.5" width="10" height="10" as="geometry" />
        </mxCell>
        <mxCell id="wcmJC4ws4vvmKw_JKWgn-409" value="d5" style="text;strokeColor=none;align=center;fillColor=none;html=1;verticalAlign=middle;whiteSpace=wrap;rounded=0;fontSize=10;" vertex="1" parent="1">
          <mxGeometry x="319" y="437.5" width="20" height="10" as="geometry" />
        </mxCell>
        <mxCell id="wcmJC4ws4vvmKw_JKWgn-410" value="" style="ellipse;whiteSpace=wrap;html=1;aspect=fixed;fillColor=#000000;" vertex="1" parent="1">
          <mxGeometry x="309" y="455.25" width="10" height="10" as="geometry" />
        </mxCell>
        <mxCell id="wcmJC4ws4vvmKw_JKWgn-411" value="d6" style="text;strokeColor=none;align=center;fillColor=none;html=1;verticalAlign=middle;whiteSpace=wrap;rounded=0;fontSize=10;" vertex="1" parent="1">
          <mxGeometry x="319" y="457.25" width="20" height="10" as="geometry" />
        </mxCell>
        <mxCell id="wcmJC4ws4vvmKw_JKWgn-412" style="rounded=0;orthogonalLoop=1;jettySize=auto;html=1;exitX=1;exitY=0.5;exitDx=0;exitDy=0;entryX=0;entryY=0.5;entryDx=0;entryDy=0;endArrow=none;endFill=0;" edge="1" parent="1" source="wcmJC4ws4vvmKw_JKWgn-413" target="wcmJC4ws4vvmKw_JKWgn-391">
          <mxGeometry relative="1" as="geometry" />
        </mxCell>
        <mxCell id="wcmJC4ws4vvmKw_JKWgn-413" value="" style="ellipse;whiteSpace=wrap;html=1;aspect=fixed;fillColor=#000000;" vertex="1" parent="1">
          <mxGeometry x="136" y="435.5" width="10" height="10" as="geometry" />
        </mxCell>
        <mxCell id="wcmJC4ws4vvmKw_JKWgn-414" value="t5" style="text;strokeColor=none;align=center;fillColor=none;html=1;verticalAlign=middle;whiteSpace=wrap;rounded=0;fontSize=10;" vertex="1" parent="1">
          <mxGeometry x="117" y="435.5" width="20" height="10" as="geometry" />
        </mxCell>
        <mxCell id="wcmJC4ws4vvmKw_JKWgn-415" value="" style="ellipse;whiteSpace=wrap;html=1;aspect=fixed;fillColor=#000000;" vertex="1" parent="1">
          <mxGeometry x="136" y="454.25" width="10" height="10" as="geometry" />
        </mxCell>
        <mxCell id="wcmJC4ws4vvmKw_JKWgn-416" value="t6" style="text;strokeColor=none;align=center;fillColor=none;html=1;verticalAlign=middle;whiteSpace=wrap;rounded=0;fontSize=10;" vertex="1" parent="1">
          <mxGeometry x="117" y="455.25" width="20" height="10" as="geometry" />
        </mxCell>
        <mxCell id="wcmJC4ws4vvmKw_JKWgn-419" value="Category" style="text;strokeColor=none;align=center;fillColor=none;html=1;verticalAlign=middle;whiteSpace=wrap;rounded=0;" vertex="1" parent="1">
          <mxGeometry x="312.5" y="1031.25" width="60" height="30" as="geometry" />
        </mxCell>
        <mxCell id="wcmJC4ws4vvmKw_JKWgn-420" value="belongs to" style="text;strokeColor=none;align=center;fillColor=none;html=1;verticalAlign=middle;whiteSpace=wrap;rounded=0;" vertex="1" parent="1">
          <mxGeometry x="414" y="1031.25" width="60" height="30" as="geometry" />
        </mxCell>
        <mxCell id="wcmJC4ws4vvmKw_JKWgn-421" value="" style="ellipse;whiteSpace=wrap;html=1;rotation=90;" vertex="1" parent="1">
          <mxGeometry x="369" y="909.63" width="143.25" height="62.5" as="geometry" />
        </mxCell>
        <mxCell id="wcmJC4ws4vvmKw_JKWgn-422" value="" style="ellipse;whiteSpace=wrap;html=1;rotation=90;" vertex="1" parent="1">
          <mxGeometry x="255" y="907.5" width="175" height="62.5" as="geometry" />
        </mxCell>
        <mxCell id="wcmJC4ws4vvmKw_JKWgn-434" value="" style="ellipse;whiteSpace=wrap;html=1;aspect=fixed;fillColor=#000000;" vertex="1" parent="1">
          <mxGeometry x="337.5" y="867.25" width="10" height="10" as="geometry" />
        </mxCell>
        <mxCell id="wcmJC4ws4vvmKw_JKWgn-435" value="" style="ellipse;whiteSpace=wrap;html=1;aspect=fixed;fillColor=#000000;" vertex="1" parent="1">
          <mxGeometry x="337.5" y="889.75" width="11.25" height="11.25" as="geometry" />
        </mxCell>
        <mxCell id="wcmJC4ws4vvmKw_JKWgn-436" value="" style="ellipse;whiteSpace=wrap;html=1;aspect=fixed;fillColor=#000000;" vertex="1" parent="1">
          <mxGeometry x="337.5" y="909.75" width="10" height="10" as="geometry" />
        </mxCell>
        <mxCell id="wcmJC4ws4vvmKw_JKWgn-437" value="2" style="rounded=0;orthogonalLoop=1;jettySize=auto;html=1;exitX=1;exitY=0.5;exitDx=0;exitDy=0;entryX=0;entryY=0.5;entryDx=0;entryDy=0;endArrow=none;endFill=0;" edge="1" parent="1" source="wcmJC4ws4vvmKw_JKWgn-438" target="wcmJC4ws4vvmKw_JKWgn-444">
          <mxGeometry relative="1" as="geometry" />
        </mxCell>
        <mxCell id="wcmJC4ws4vvmKw_JKWgn-438" value="" style="ellipse;whiteSpace=wrap;html=1;aspect=fixed;fillColor=#000000;" vertex="1" parent="1">
          <mxGeometry x="337.5" y="932.25" width="10" height="10" as="geometry" />
        </mxCell>
        <mxCell id="wcmJC4ws4vvmKw_JKWgn-439" value="1" style="rounded=0;orthogonalLoop=1;jettySize=auto;html=1;exitX=0;exitY=0.5;exitDx=0;exitDy=0;entryX=0;entryY=0.5;entryDx=0;entryDy=0;endArrow=none;endFill=0;" edge="1" parent="1" source="wcmJC4ws4vvmKw_JKWgn-440" target="wcmJC4ws4vvmKw_JKWgn-434">
          <mxGeometry relative="1" as="geometry" />
        </mxCell>
        <mxCell id="wcmJC4ws4vvmKw_JKWgn-440" value="" style="whiteSpace=wrap;html=1;aspect=fixed;fillColor=#000000;" vertex="1" parent="1">
          <mxGeometry x="435.88" y="887.25" width="10" height="10" as="geometry" />
        </mxCell>
        <mxCell id="wcmJC4ws4vvmKw_JKWgn-441" value="1" style="rounded=0;orthogonalLoop=1;jettySize=auto;html=1;entryX=0.125;entryY=0.5;entryDx=0;entryDy=0;endArrow=none;endFill=0;entryPerimeter=0;exitX=0;exitY=0.5;exitDx=0;exitDy=0;" edge="1" parent="1" source="wcmJC4ws4vvmKw_JKWgn-444" target="wcmJC4ws4vvmKw_JKWgn-436">
          <mxGeometry relative="1" as="geometry">
            <mxPoint x="435.5" y="917.25" as="sourcePoint" />
          </mxGeometry>
        </mxCell>
        <mxCell id="wcmJC4ws4vvmKw_JKWgn-442" value="2" style="rounded=0;orthogonalLoop=1;jettySize=auto;html=1;exitX=0.25;exitY=1;exitDx=0;exitDy=0;entryX=0;entryY=0.5;entryDx=0;entryDy=0;endArrow=none;endFill=0;" edge="1" parent="1" source="wcmJC4ws4vvmKw_JKWgn-458" target="wcmJC4ws4vvmKw_JKWgn-435">
          <mxGeometry relative="1" as="geometry" />
        </mxCell>
        <mxCell id="wcmJC4ws4vvmKw_JKWgn-444" value="" style="whiteSpace=wrap;html=1;aspect=fixed;fillColor=#000000;" vertex="1" parent="1">
          <mxGeometry x="435.88" y="908" width="10" height="10" as="geometry" />
        </mxCell>
        <mxCell id="wcmJC4ws4vvmKw_JKWgn-445" value="" style="whiteSpace=wrap;html=1;aspect=fixed;fillColor=#000000;" vertex="1" parent="1">
          <mxGeometry x="435.88" y="929.5" width="10" height="10" as="geometry" />
        </mxCell>
        <mxCell id="wcmJC4ws4vvmKw_JKWgn-446" value="&lt;p style=&quot;line-height: 0%;&quot;&gt;&lt;span style=&quot;font-size: 15px;&quot;&gt;.&lt;/span&gt;&lt;/p&gt;&lt;p style=&quot;line-height: 0%;&quot;&gt;&lt;span style=&quot;font-size: 15px;&quot;&gt;.&lt;/span&gt;&lt;/p&gt;&lt;p style=&quot;line-height: 0%;&quot;&gt;&lt;span style=&quot;font-size: 15px;&quot;&gt;.&lt;/span&gt;&lt;/p&gt;&lt;p&gt;&lt;/p&gt;" style="text;strokeColor=none;align=center;fillColor=none;html=1;verticalAlign=middle;whiteSpace=wrap;rounded=0;" vertex="1" parent="1">
          <mxGeometry x="425.88" y="975.25" width="30" height="15" as="geometry" />
        </mxCell>
        <mxCell id="wcmJC4ws4vvmKw_JKWgn-447" value="&lt;p style=&quot;line-height: 0%;&quot;&gt;&lt;span style=&quot;font-size: 15px;&quot;&gt;.&lt;/span&gt;&lt;/p&gt;&lt;p style=&quot;line-height: 0%;&quot;&gt;&lt;span style=&quot;font-size: 15px;&quot;&gt;.&lt;/span&gt;&lt;/p&gt;&lt;p style=&quot;line-height: 0%;&quot;&gt;&lt;span style=&quot;font-size: 15px;&quot;&gt;.&lt;/span&gt;&lt;/p&gt;&lt;p&gt;&lt;/p&gt;" style="text;strokeColor=none;align=center;fillColor=none;html=1;verticalAlign=middle;whiteSpace=wrap;rounded=0;" vertex="1" parent="1">
          <mxGeometry x="327.5" y="990.25" width="30" height="15" as="geometry" />
        </mxCell>
        <mxCell id="wcmJC4ws4vvmKw_JKWgn-448" value="1" style="rounded=0;orthogonalLoop=1;jettySize=auto;html=1;entryX=0;entryY=0.5;entryDx=0;entryDy=0;endArrow=none;endFill=0;exitX=0;exitY=1;exitDx=0;exitDy=0;" edge="1" parent="1" source="wcmJC4ws4vvmKw_JKWgn-449" target="wcmJC4ws4vvmKw_JKWgn-466">
          <mxGeometry relative="1" as="geometry">
            <mxPoint x="435.5" y="957.25" as="sourcePoint" />
          </mxGeometry>
        </mxCell>
        <mxCell id="wcmJC4ws4vvmKw_JKWgn-449" value="" style="whiteSpace=wrap;html=1;aspect=fixed;fillColor=#000000;" vertex="1" parent="1">
          <mxGeometry x="435.88" y="951.75" width="10" height="10" as="geometry" />
        </mxCell>
        <mxCell id="wcmJC4ws4vvmKw_JKWgn-450" value="2" style="rounded=0;orthogonalLoop=1;jettySize=auto;html=1;exitX=1;exitY=0;exitDx=0;exitDy=0;entryX=1;entryY=0.5;entryDx=0;entryDy=0;endArrow=none;endFill=0;" edge="1" parent="1" source="wcmJC4ws4vvmKw_JKWgn-445" target="wcmJC4ws4vvmKw_JKWgn-468">
          <mxGeometry relative="1" as="geometry" />
        </mxCell>
        <mxCell id="wcmJC4ws4vvmKw_JKWgn-456" value="r1" style="text;strokeColor=none;align=center;fillColor=none;html=1;verticalAlign=middle;whiteSpace=wrap;rounded=0;fontSize=10;" vertex="1" parent="1">
          <mxGeometry x="430.63" y="877.25" width="20" height="10" as="geometry" />
        </mxCell>
        <mxCell id="wcmJC4ws4vvmKw_JKWgn-458" value="r2" style="text;strokeColor=none;align=center;fillColor=none;html=1;verticalAlign=middle;whiteSpace=wrap;rounded=0;fontSize=10;" vertex="1" parent="1">
          <mxGeometry x="430.88" y="898.25" width="20" height="10" as="geometry" />
        </mxCell>
        <mxCell id="wcmJC4ws4vvmKw_JKWgn-459" value="r3" style="text;strokeColor=none;align=center;fillColor=none;html=1;verticalAlign=middle;whiteSpace=wrap;rounded=0;fontSize=10;" vertex="1" parent="1">
          <mxGeometry x="430.88" y="919.5" width="20" height="10" as="geometry" />
        </mxCell>
        <mxCell id="wcmJC4ws4vvmKw_JKWgn-460" value="r5" style="text;strokeColor=none;align=center;fillColor=none;html=1;verticalAlign=middle;whiteSpace=wrap;rounded=0;fontSize=10;" vertex="1" parent="1">
          <mxGeometry x="430.88" y="941.75" width="20" height="10" as="geometry" />
        </mxCell>
        <mxCell id="wcmJC4ws4vvmKw_JKWgn-462" value="p1" style="text;strokeColor=none;align=center;fillColor=none;html=1;verticalAlign=middle;whiteSpace=wrap;rounded=0;fontSize=10;" vertex="1" parent="1">
          <mxGeometry x="319.5" y="867" width="20" height="10" as="geometry" />
        </mxCell>
        <mxCell id="wcmJC4ws4vvmKw_JKWgn-463" value="p2" style="text;strokeColor=none;align=center;fillColor=none;html=1;verticalAlign=middle;whiteSpace=wrap;rounded=0;fontSize=10;" vertex="1" parent="1">
          <mxGeometry x="318.5" y="889.5" width="20" height="10" as="geometry" />
        </mxCell>
        <mxCell id="wcmJC4ws4vvmKw_JKWgn-464" value="p3" style="text;strokeColor=none;align=center;fillColor=none;html=1;verticalAlign=middle;whiteSpace=wrap;rounded=0;fontSize=10;" vertex="1" parent="1">
          <mxGeometry x="318.5" y="910.5" width="20" height="10" as="geometry" />
        </mxCell>
        <mxCell id="wcmJC4ws4vvmKw_JKWgn-465" value="p4" style="text;strokeColor=none;align=center;fillColor=none;html=1;verticalAlign=middle;whiteSpace=wrap;rounded=0;fontSize=10;" vertex="1" parent="1">
          <mxGeometry x="317.5" y="933" width="20" height="10" as="geometry" />
        </mxCell>
        <mxCell id="wcmJC4ws4vvmKw_JKWgn-466" value="" style="ellipse;whiteSpace=wrap;html=1;aspect=fixed;fillColor=#000000;" vertex="1" parent="1">
          <mxGeometry x="337.5" y="952.5" width="10" height="10" as="geometry" />
        </mxCell>
        <mxCell id="wcmJC4ws4vvmKw_JKWgn-467" value="p5" style="text;strokeColor=none;align=center;fillColor=none;html=1;verticalAlign=middle;whiteSpace=wrap;rounded=0;fontSize=10;" vertex="1" parent="1">
          <mxGeometry x="317.5" y="952.25" width="20" height="10" as="geometry" />
        </mxCell>
        <mxCell id="wcmJC4ws4vvmKw_JKWgn-468" value="" style="ellipse;whiteSpace=wrap;html=1;aspect=fixed;fillColor=#000000;" vertex="1" parent="1">
          <mxGeometry x="337.5" y="972.25" width="10" height="10" as="geometry" />
        </mxCell>
        <mxCell id="wcmJC4ws4vvmKw_JKWgn-469" value="p6" style="text;strokeColor=none;align=center;fillColor=none;html=1;verticalAlign=middle;whiteSpace=wrap;rounded=0;fontSize=10;" vertex="1" parent="1">
          <mxGeometry x="317.5" y="972" width="20" height="10" as="geometry" />
        </mxCell>
      </root>
    </mxGraphModel>
  </diagram>
</mxfile>
